<svg xmlns="http://www.w3.org/2000/svg" width="51" height="56" viewBox="0 0 51 56" fill="none">
    <path d="M36.9407 56H4.05264C2.78846 56 1.67499 55.5022 0.917064 54.5986C0.14685 53.68 -0.152808 52.4688 0.0736913 51.1885L8.18142 4.5215C8.39446 3.30735 9.06254 2.17018 10.0622 1.32066C11.0645 0.469093 12.2888 0 13.5097 0H46.3977C47.6622 0 48.7757 0.497479 49.5333 1.40026C50.3038 2.31884 50.6035 3.53122 50.377 4.81384L42.2689 51.4808C42.0559 52.6941 41.3878 53.8304 40.3879 54.6796C39.3856 55.5309 38.1612 56 36.9407 56ZM13.5097 1.68206C11.8171 1.68206 10.1356 3.11597 9.83803 4.81296L1.73 51.4808C1.59159 52.2636 1.76044 52.9867 2.20583 53.5176C2.63863 54.0338 3.29443 54.3179 4.05264 54.3179H36.9407C38.633 54.3179 40.3144 52.8852 40.6123 51.1891L48.7207 4.5215C48.8594 3.73694 48.6902 3.01238 48.2448 2.48125C47.8123 1.96592 47.1565 1.68206 46.398 1.68206H13.5097Z" fill="white"/>
    <path d="M5.60328 47.0126C5.57518 47.0126 5.55206 47.0021 5.53392 46.981C5.51578 46.9599 5.50934 46.9342 5.5149 46.9032L5.95649 44.8512H5.23339C5.20237 44.8512 5.17808 44.8407 5.15993 44.8196C5.14179 44.7985 5.13535 44.7728 5.14091 44.7418L5.26294 44.1784C5.2685 44.1477 5.2846 44.1217 5.31123 44.1006C5.33786 44.0795 5.36507 44.069 5.39316 44.069H7.75619C7.78691 44.069 7.81149 44.0795 7.82964 44.1006C7.84778 44.1217 7.85422 44.1477 7.84866 44.1784L7.72663 44.7418C7.72107 44.7728 7.70556 44.7985 7.68039 44.8196C7.65523 44.8407 7.62714 44.8512 7.59641 44.8512H6.87331L6.43172 46.9032C6.42616 46.9342 6.41065 46.9599 6.38549 46.981C6.36032 47.0021 6.33223 47.0126 6.3015 47.0126H5.60328Z" fill="white"/>
    <path d="M7.74097 47.0126C7.71288 47.0126 7.68976 47.0021 7.67162 46.981C7.65347 46.9599 7.64703 46.9342 7.65259 46.9032L8.23699 44.1784C8.24255 44.1477 8.25805 44.1217 8.28322 44.1006C8.30839 44.0795 8.33648 44.069 8.36721 44.069H9.07772C9.10845 44.069 9.13245 44.0795 9.14913 44.1006C9.1661 44.1217 9.17166 44.1477 9.1661 44.1784L8.58581 46.9032C8.58025 46.9342 8.56474 46.9599 8.53957 46.981C8.5144 47.0021 8.48631 47.0126 8.45558 47.0126H7.74068H7.74097Z" fill="white"/>
    <path d="M9.89564 47.0126C9.86754 47.0126 9.84443 47.0021 9.82628 46.981C9.80814 46.9599 9.8017 46.9342 9.80726 46.9032L10.2488 44.8512H9.52575C9.49473 44.8512 9.47044 44.8407 9.4523 44.8196C9.43415 44.7985 9.42771 44.7728 9.43327 44.7418L9.5553 44.1784C9.56086 44.1477 9.57696 44.1217 9.60359 44.1006C9.63022 44.0795 9.65743 44.069 9.68553 44.069H12.0485C12.0793 44.069 12.1039 44.0795 12.122 44.1006C12.1401 44.1217 12.1466 44.1477 12.141 44.1784L12.019 44.7418C12.0134 44.7728 11.9979 44.7985 11.9728 44.8196C11.9476 44.8407 11.9195 44.8512 11.8888 44.8512H11.1657L10.7241 46.9032C10.7185 46.9342 10.703 46.9599 10.6779 46.981C10.6527 47.0021 10.6246 47.0126 10.5939 47.0126H9.89564Z" fill="white"/>
    <path d="M12.0371 47.0126C12.0061 47.0126 11.9818 47.0021 11.9637 46.981C11.9455 46.9599 11.9391 46.9342 11.9447 46.9032L12.5291 44.1784C12.5346 44.1477 12.5501 44.1217 12.5753 44.1006C12.6005 44.0795 12.6286 44.069 12.6593 44.069H13.3572C13.3853 44.069 13.4084 44.0795 13.4266 44.1006C13.4447 44.1217 13.4511 44.1477 13.4456 44.1784L12.9999 46.264H14.2193C14.25 46.264 14.2732 46.2746 14.2887 46.2957C14.3042 46.3167 14.3089 46.3428 14.3033 46.3735L14.1939 46.9032C14.1883 46.9342 14.1722 46.9599 14.1456 46.981C14.1189 47.0021 14.0903 47.0126 14.0592 47.0126H12.0366H12.0371Z" fill="white"/>
    <path d="M14.6641 47.0126C14.6331 47.0126 14.6088 47.0021 14.5907 46.981C14.5725 46.9599 14.5661 46.9342 14.5716 46.9032L15.1519 44.1784C15.1575 44.1477 15.1736 44.1217 15.2002 44.1006C15.2269 44.0795 15.2555 44.069 15.2865 44.069H17.347C17.3777 44.069 17.4017 44.0795 17.4184 44.1006C17.4351 44.1217 17.4409 44.1477 17.4351 44.1784L17.33 44.6748C17.3245 44.7028 17.3084 44.728 17.2817 44.7505C17.2551 44.7731 17.2264 44.7842 17.1954 44.7842H15.8961L15.8036 45.2006H17.0105C17.0412 45.2006 17.0658 45.2111 17.0839 45.2322C17.1021 45.2533 17.1085 45.2793 17.1029 45.3101L17.002 45.7642C16.9964 45.7952 16.9803 45.821 16.9537 45.8421C16.9271 45.8631 16.8984 45.8737 16.8674 45.8737H15.6605L15.5722 46.2983H16.9051C16.9358 46.2983 16.9598 46.3094 16.9765 46.3319C16.9932 46.3545 16.999 46.3811 16.9932 46.4118L16.8881 46.9038C16.8826 46.9348 16.8671 46.9605 16.8419 46.9816C16.8167 47.0027 16.7886 47.0132 16.7579 47.0132H14.6638L14.6641 47.0126Z" fill="white"/>
    <path d="M18.6756 47.0126C18.6445 47.0126 18.6202 47.0021 18.6021 46.981C18.584 46.9599 18.5775 46.9342 18.5831 46.9032L19.1634 44.1784C19.1689 44.1477 19.185 44.1217 19.2117 44.1006C19.2383 44.0795 19.267 44.069 19.298 44.069H20.4501C20.6239 44.069 20.7837 44.0895 20.9294 44.1299C21.0752 44.1705 21.1986 44.2329 21.2993 44.3169C21.4003 44.4008 21.4711 44.5053 21.5118 44.6303C21.5524 44.7549 21.556 44.9015 21.5223 45.0698C21.4494 45.4063 21.3028 45.6522 21.0828 45.8078C20.8627 45.9635 20.5607 46.0414 20.1765 46.0414H19.7056L19.5207 46.9035C19.5151 46.9345 19.4996 46.9602 19.4744 46.9813C19.4493 47.0024 19.4212 47.0129 19.3905 47.0129H18.6756V47.0126ZM19.832 45.3642H20.223C20.3014 45.3642 20.3758 45.3396 20.446 45.2907C20.5159 45.2419 20.5622 45.1652 20.5847 45.0616C20.5987 45.0084 20.6023 44.958 20.5952 44.9103C20.5882 44.8626 20.5671 44.824 20.532 44.7947C20.4969 44.7652 20.4401 44.7505 20.3617 44.7505H19.9664L19.8317 45.3645L19.832 45.3642Z" fill="white"/>
    <path d="M21.2718 47.0126C21.2411 47.0126 21.2185 46.9994 21.2045 46.9725C21.1904 46.9459 21.1919 46.9187 21.2086 46.8906L22.7391 44.1995C22.7558 44.1688 22.7812 44.1392 22.8149 44.1111C22.8485 44.083 22.8918 44.069 22.9451 44.069H23.7355C23.7888 44.069 23.8265 44.083 23.849 44.1111C23.8716 44.1392 23.8841 44.1685 23.8868 44.1995L24.2777 46.8906C24.2833 46.9272 24.2742 46.9564 24.2505 46.979C24.2265 47.0015 24.1993 47.0126 24.1686 47.0126H23.538C23.4903 47.0126 23.4575 47.0015 23.4391 46.979C23.4209 46.9564 23.4089 46.9342 23.4034 46.9116L23.3445 46.5625H22.3352L22.1251 46.9157C22.114 46.9383 22.095 46.9599 22.0684 46.981C22.0417 47.0021 22.0046 47.0126 21.9569 47.0126H21.2715H21.2718ZM22.6762 45.852H23.3027L23.1932 44.9059L22.6762 45.852Z" fill="white"/>
    <path d="M24.7249 47.0126C24.6968 47.0126 24.6746 47.0021 24.6576 46.981C24.6406 46.9599 24.6351 46.9342 24.6406 46.9032L25.2168 44.1784C25.2224 44.1477 25.239 44.1217 25.2671 44.1006C25.2952 44.0795 25.3233 44.069 25.3511 44.069H26.5495C26.9308 44.069 27.2117 44.1559 27.3925 44.3297C27.5734 44.5036 27.6302 44.7462 27.5629 45.0572C27.5207 45.2536 27.4402 45.4204 27.3211 45.5576C27.202 45.6949 27.0625 45.8029 26.9027 45.8813L27.2348 46.8736C27.2374 46.8821 27.2398 46.8897 27.2413 46.8967C27.2427 46.9037 27.2418 46.9114 27.2392 46.9198C27.2336 46.945 27.2202 46.967 27.1991 46.9851C27.178 47.0032 27.1549 47.0123 27.1298 47.0123H26.4192C26.366 47.0123 26.3288 46.9991 26.3077 46.9722C26.2867 46.9456 26.2735 46.921 26.2677 46.8988L26.0321 46.0326H25.7292L25.5443 46.9029C25.5387 46.9339 25.5226 46.9596 25.496 46.9807C25.4694 47.0018 25.4407 47.0123 25.4097 47.0123H24.7243L24.7249 47.0126ZM25.877 45.339H26.2764C26.3745 45.339 26.4538 45.3118 26.5141 45.2571C26.5743 45.2024 26.613 45.1345 26.6296 45.0531C26.6466 44.9691 26.6373 44.8974 26.6024 44.8386C26.5673 44.7798 26.4994 44.7503 26.3985 44.7503H25.999L25.877 45.339Z" fill="white"/>
    <path d="M28.3287 47.0126C28.3006 47.0126 28.2775 47.0021 28.2593 46.981C28.2412 46.9599 28.2347 46.9342 28.2403 46.9032L28.6819 44.8512H27.9588C27.9278 44.8512 27.9035 44.8407 27.8853 44.8196C27.8672 44.7985 27.8608 44.7728 27.8663 44.7418L27.9883 44.1784C27.9939 44.1477 28.01 44.1217 28.0366 44.1006C28.0633 44.0795 28.0905 44.069 28.1186 44.069H30.4816C30.5123 44.069 30.5369 44.0795 30.555 44.1006C30.5732 44.1217 30.5796 44.1477 30.5741 44.1784L30.452 44.7418C30.4465 44.7728 30.431 44.7985 30.4058 44.8196C30.3806 44.8407 30.3525 44.8512 30.3218 44.8512H29.5987L29.1571 46.9032C29.1516 46.9342 29.1361 46.9599 29.1109 46.981C29.0857 47.0021 29.0576 47.0126 29.0269 47.0126H28.3287Z" fill="white"/>
    <path d="M30.4702 47.0126C30.4395 47.0126 30.4149 47.0021 30.3967 46.981C30.3786 46.9599 30.3721 46.9342 30.3777 46.9032L30.958 44.1784C30.9636 44.1477 30.9797 44.1217 31.0063 44.1006C31.0329 44.0795 31.0601 44.069 31.0882 44.069H31.6474C31.6978 44.069 31.7323 44.0801 31.7505 44.1026C31.7686 44.1252 31.7791 44.1433 31.7821 44.1574L32.3624 45.5535L32.6526 44.1784C32.6582 44.1477 32.6737 44.1217 32.6989 44.1006C32.7241 44.0795 32.7521 44.069 32.7829 44.069H33.4179C33.4486 44.069 33.4726 44.0795 33.4893 44.1006C33.5063 44.1217 33.5118 44.1477 33.5063 44.1784L32.926 46.9032C32.9204 46.9342 32.9049 46.9599 32.8797 46.981C32.8546 47.0021 32.8265 47.0126 32.7957 47.0126H32.2406C32.1874 47.0126 32.1517 47.0006 32.1335 46.9769C32.1154 46.9532 32.1034 46.9356 32.0978 46.9242L31.509 45.6039L31.2316 46.9032C31.2261 46.9342 31.2105 46.9599 31.1854 46.981C31.1602 47.0021 31.1321 47.0126 31.1014 47.0126H30.4702Z" fill="white"/>
    <path d="M33.6499 47.0126C33.6189 47.0126 33.5946 47.0021 33.5765 46.981C33.5584 46.9599 33.5519 46.9342 33.5575 46.9032L34.1378 44.1784C34.1433 44.1477 34.1594 44.1217 34.1861 44.1006C34.2127 44.0795 34.2414 44.069 34.2724 44.069H36.3328C36.3635 44.069 36.3875 44.0795 36.4042 44.1006C36.4212 44.1217 36.4268 44.1477 36.4212 44.1784L36.3161 44.6748C36.3106 44.7028 36.2945 44.728 36.2679 44.7505C36.2412 44.7731 36.2125 44.7842 36.1815 44.7842H34.8822L34.7898 45.2006H35.9966C36.0273 45.2006 36.0519 45.2111 36.07 45.2322C36.0882 45.2533 36.0946 45.2793 36.0891 45.3101L35.9881 45.7642C35.9825 45.7952 35.9664 45.821 35.9398 45.8421C35.9132 45.8631 35.8845 45.8737 35.8535 45.8737H34.6467L34.5583 46.2983H35.8912C35.922 46.2983 35.946 46.3094 35.9626 46.3319C35.9793 46.3545 35.9852 46.3811 35.9793 46.4118L35.8743 46.9038C35.8687 46.9348 35.8532 46.9605 35.828 46.9816C35.8029 47.0027 35.7748 47.0132 35.744 47.0132H33.6499V47.0126Z" fill="white"/>
    <path d="M36.4104 47.0126C36.3823 47.0126 36.36 47.0021 36.3431 46.981C36.3264 46.9599 36.3205 46.9342 36.3264 46.9032L36.9026 44.1784C36.9081 44.1477 36.9251 44.1217 36.9529 44.1006C36.981 44.0795 37.0091 44.069 37.0369 44.069H38.2352C38.6165 44.069 38.8975 44.1559 39.0783 44.3297C39.2592 44.5036 39.3159 44.7462 39.2486 45.0572C39.2065 45.2536 39.126 45.4204 39.0069 45.5576C38.8878 45.6949 38.7482 45.8029 38.5884 45.8813L38.9206 46.8736C38.9232 46.8821 38.9256 46.8897 38.927 46.8967C38.9285 46.9037 38.9276 46.9114 38.925 46.9198C38.9194 46.945 38.906 46.967 38.8849 46.9851C38.8638 47.0032 38.8407 47.0123 38.8155 47.0123H38.105C38.0518 47.0123 38.0146 46.9991 37.9935 46.9722C37.9724 46.9456 37.9593 46.921 37.9534 46.8988L37.7179 46.0326H37.415L37.23 46.9029C37.2245 46.9339 37.2084 46.9596 37.1818 46.9807C37.1551 47.0018 37.1264 47.0123 37.0954 47.0123H36.4101L36.4104 47.0126ZM37.5625 45.339H37.9619C38.0599 45.339 38.1393 45.3118 38.1995 45.2571C38.2598 45.2024 38.2984 45.1345 38.3151 45.0531C38.3318 44.9691 38.3227 44.8974 38.2879 44.8386C38.2528 44.7798 38.1849 44.7503 38.0839 44.7503H37.6845L37.5625 45.339Z" fill="white"/>
    <path d="M10.5988 41.1318C10.5678 41.1318 10.5435 41.1213 10.5254 41.1002C10.5072 41.0792 10.5008 41.0534 10.5064 41.0224L11.0867 38.2977C11.0922 38.2669 11.1083 38.2409 11.1349 38.2198C11.1616 38.1988 11.1903 38.1882 11.2213 38.1882H13.2817C13.3124 38.1882 13.3364 38.1988 13.3531 38.2198C13.3698 38.2409 13.3756 38.2669 13.3698 38.2977L13.2647 38.794C13.2592 38.8221 13.2431 38.8472 13.2165 38.8698C13.1898 38.8923 13.1611 38.9034 13.1301 38.9034H11.8308L11.7384 39.3198H12.9452C12.9759 39.3198 13.0005 39.3304 13.0186 39.3514C13.0368 39.3725 13.0432 39.3986 13.0377 39.4293L12.9367 39.8834C12.9311 39.9142 12.915 39.9402 12.8884 39.9613C12.8618 39.9824 12.8331 39.9929 12.8021 39.9929H11.5953L11.5069 40.4175H12.8398C12.8706 40.4175 12.8946 40.4286 12.9112 40.4512C12.9279 40.4737 12.9338 40.5003 12.9279 40.531L12.8229 41.023C12.8173 41.0537 12.8018 41.0797 12.7766 41.1008C12.7515 41.1219 12.7234 41.1324 12.6926 41.1324H10.5985L10.5988 41.1318Z" fill="white"/>
    <path d="M13.2255 41.1318C13.1919 41.1318 13.1688 41.1157 13.1562 41.0835C13.1436 41.0514 13.1497 41.0212 13.1752 40.9931L14.4283 39.6139L13.7891 38.3272C13.7725 38.2965 13.7745 38.2655 13.7956 38.2347C13.8166 38.204 13.8483 38.1885 13.8901 38.1885H14.5754C14.6287 38.1885 14.665 38.2011 14.6849 38.2263C14.7045 38.2514 14.7171 38.271 14.7226 38.2851L15.0592 38.9578L15.6395 38.2851C15.6535 38.271 15.6752 38.2514 15.7047 38.2263C15.7343 38.2011 15.7741 38.1885 15.8247 38.1885H16.5815C16.6207 38.1885 16.6453 38.2052 16.6549 38.2388C16.6646 38.2725 16.6584 38.302 16.6359 38.3272L15.4416 39.7275L16.0767 40.9972C16.0907 41.0279 16.0887 41.0581 16.0702 41.0876C16.0521 41.1172 16.0205 41.1318 15.9757 41.1318H15.2904C15.24 41.1318 15.204 41.1192 15.1833 41.0941C15.1622 41.0689 15.149 41.0508 15.1435 41.0394L14.8198 40.4002L14.2354 41.0394C14.2269 41.0505 14.2082 41.0689 14.1786 41.0941C14.1491 41.1192 14.1078 41.1318 14.0546 41.1318H13.2255Z" fill="white"/>
    <path d="M17.7403 41.1737C17.5495 41.1737 17.3745 41.1506 17.2147 41.1043C17.0549 41.0581 16.9197 40.9881 16.8088 40.8942C16.6979 40.8003 16.6204 40.6818 16.5753 40.539C16.5305 40.3959 16.5235 40.2279 16.5542 40.0344C16.5738 39.9194 16.5984 39.7962 16.6277 39.6646C16.6573 39.5329 16.6859 39.4067 16.714 39.2862C16.7813 39.0339 16.8823 38.8229 17.0169 38.6535C17.1515 38.4841 17.3204 38.3571 17.5234 38.2731C17.7265 38.1891 17.9642 38.147 18.2363 38.147C18.4101 38.147 18.5769 38.1686 18.7367 38.2122C18.8965 38.2558 19.0358 38.3208 19.1552 38.4077C19.2743 38.4946 19.3618 38.6032 19.418 38.7337C19.4741 38.8642 19.4853 39.0175 19.4516 39.194C19.4461 39.2192 19.4326 39.2402 19.4115 39.2572C19.3905 39.2742 19.3673 39.2824 19.3422 39.2824H18.6273C18.5881 39.2824 18.5594 39.2739 18.5409 39.2572C18.5228 39.2405 18.5108 39.211 18.5052 39.1688C18.5023 39.0512 18.4695 38.9704 18.4063 38.9271C18.3431 38.8838 18.2612 38.8619 18.1602 38.8619C18.0367 38.8619 17.9311 38.8949 17.8427 38.9608C17.7543 39.0266 17.6905 39.1422 17.6513 39.3075C17.5925 39.5376 17.5419 39.7728 17.5 40.014C17.469 40.1793 17.4825 40.2952 17.5398 40.3607C17.5972 40.4266 17.6876 40.4596 17.8111 40.4596C17.9121 40.4596 18.0037 40.4371 18.0865 40.3923C18.169 40.3476 18.2386 40.2677 18.2945 40.1527C18.3171 40.1079 18.3402 40.0778 18.3639 40.0622C18.3876 40.0467 18.4207 40.0391 18.4628 40.0391H19.1777C19.2029 40.0391 19.2234 40.0476 19.2386 40.0643C19.2541 40.081 19.2588 40.102 19.2532 40.1275C19.2084 40.3013 19.1417 40.4535 19.0533 40.5837C18.965 40.7139 18.8549 40.8234 18.7232 40.9118C18.5916 41.0001 18.4429 41.066 18.2776 41.1093C18.1122 41.1526 17.9328 41.1746 17.7394 41.1746L17.7403 41.1737Z" fill="white"/>
    <path d="M19.6603 41.1318C19.6292 41.1318 19.605 41.1213 19.5868 41.1002C19.5687 41.0792 19.5622 41.0534 19.5678 41.0224L20.1522 38.2977C20.1577 38.2669 20.1733 38.2409 20.1984 38.2198C20.2236 38.1988 20.2517 38.1882 20.2824 38.1882H20.9803C21.0084 38.1882 21.0315 38.1988 21.0497 38.2198C21.0678 38.2409 21.0743 38.2669 21.0687 38.2977L20.623 40.3833H21.8424C21.8732 40.3833 21.8963 40.3938 21.9118 40.4149C21.9273 40.4359 21.932 40.462 21.9264 40.4927L21.817 41.0227C21.8114 41.0534 21.7953 41.0794 21.7687 41.1005C21.7421 41.1216 21.7134 41.1321 21.6824 41.1321H19.6597L19.6603 41.1318Z" fill="white"/>
    <path d="M23.3764 41.1737C23.197 41.1737 23.0297 41.1506 22.874 41.1043C22.7183 41.0581 22.5851 40.9881 22.4745 40.8942C22.3636 40.8003 22.2867 40.6806 22.2433 40.5346C22.1997 40.3888 22.1992 40.2165 22.2413 40.0175L22.6071 38.2977C22.6127 38.2669 22.6282 38.2409 22.6533 38.2198C22.6785 38.1988 22.7066 38.1882 22.7373 38.1882H23.4186C23.4493 38.1882 23.4739 38.1988 23.492 38.2198C23.5102 38.2409 23.5166 38.2669 23.511 38.2977L23.1452 40.0049C23.1142 40.148 23.1236 40.2557 23.1725 40.3285C23.2216 40.4014 23.3147 40.438 23.4522 40.438C23.5898 40.438 23.6969 40.4017 23.7823 40.3285C23.8678 40.2557 23.926 40.1477 23.9567 40.0049L24.3225 38.2977C24.3281 38.2669 24.3436 38.2409 24.3688 38.2198C24.3939 38.1988 24.422 38.1882 24.4527 38.1882H25.1381C25.1688 38.1882 25.1928 38.1988 25.2095 38.2198C25.2262 38.2409 25.232 38.2669 25.2265 38.2977L24.8607 40.0175C24.7767 40.4155 24.6154 40.7078 24.3772 40.8942C24.139 41.0806 23.8054 41.174 23.3764 41.174V41.1737Z" fill="white"/>
    <path d="M26.445 41.1737C26.1535 41.1737 25.913 41.133 25.7239 41.0516C25.5346 40.9703 25.3994 40.8632 25.3181 40.73C25.2367 40.5969 25.2086 40.4547 25.2341 40.3034C25.2396 40.2782 25.2522 40.2571 25.2718 40.2402C25.2914 40.2232 25.314 40.215 25.3391 40.215H26.0078C26.0499 40.215 26.0807 40.2214 26.1003 40.234C26.1199 40.2466 26.1395 40.2642 26.1591 40.2867C26.1758 40.3177 26.1992 40.3464 26.2284 40.373C26.2577 40.3997 26.2972 40.4207 26.3461 40.4362C26.3952 40.4517 26.4532 40.4594 26.5205 40.4594C26.6493 40.4594 26.7537 40.4418 26.8339 40.4067C26.9138 40.3716 26.9606 40.3233 26.9747 40.2615C26.9858 40.2138 26.9752 40.1746 26.9431 40.1439C26.9109 40.1132 26.852 40.0851 26.7663 40.0599C26.6809 40.0347 26.5653 40.0081 26.4195 39.98C26.2094 39.9437 26.0347 39.8846 25.896 39.8033C25.7573 39.7219 25.6599 39.6163 25.6037 39.4858C25.5475 39.3555 25.5393 39.2004 25.5785 39.0211C25.6347 38.7492 25.779 38.5353 26.0116 38.3799C26.2442 38.2242 26.5457 38.1467 26.9156 38.1467C27.1005 38.1467 27.2673 38.1733 27.416 38.2266C27.5646 38.2798 27.6899 38.3492 27.7923 38.4346C27.8947 38.5201 27.9702 38.612 28.0194 38.71C28.0682 38.808 28.0846 38.902 28.0677 38.9918C28.0647 39.017 28.053 39.0389 28.032 39.057C28.0109 39.0752 27.9892 39.0843 27.9667 39.0843H27.2644C27.2278 39.0843 27.1991 39.0787 27.178 39.0676C27.157 39.0565 27.138 39.038 27.1213 39.0129C27.1157 38.9736 27.0882 38.9385 27.0393 38.9078C26.9902 38.8771 26.9252 38.8616 26.8439 38.8616C26.7485 38.8616 26.6706 38.8777 26.6106 38.9099C26.5503 38.942 26.5132 38.9892 26.4991 39.0506C26.4906 39.0927 26.4991 39.129 26.5243 39.1601C26.5495 39.1908 26.5986 39.2183 26.6715 39.242C26.7444 39.266 26.8482 39.2917 26.9826 39.3198C27.2433 39.359 27.4473 39.4193 27.5945 39.5007C27.7417 39.582 27.8397 39.6865 27.8889 39.8141C27.9377 39.9417 27.9442 40.0939 27.9079 40.2703C27.8432 40.5673 27.6884 40.7924 27.4432 40.9451C27.1979 41.0979 26.8649 41.1743 26.4444 41.1743L26.445 41.1737Z" fill="white"/>
    <path d="M28.319 41.1318C28.2909 41.1318 28.2678 41.1213 28.2497 41.1002C28.2315 41.0792 28.2251 41.0534 28.2307 41.0224L28.815 38.2977C28.8206 38.2669 28.8361 38.2409 28.8613 38.2198C28.8864 38.1988 28.9145 38.1882 28.9453 38.1882H29.6558C29.6865 38.1882 29.7105 38.1988 29.7272 38.2198C29.7439 38.2409 29.7497 38.2669 29.7442 38.2977L29.1639 41.0224C29.1583 41.0531 29.1428 41.0792 29.1176 41.1002C29.0925 41.1213 29.0644 41.1318 29.0336 41.1318H28.3187H28.319Z" fill="white"/>
    <path d="M30.5044 41.1318C30.4541 41.1318 30.4169 41.1178 30.3929 41.0897C30.3692 41.0616 30.3558 41.0323 30.3528 41.0013L30.0965 38.3059C30.0936 38.2666 30.1035 38.2371 30.126 38.2175C30.1486 38.1979 30.1749 38.1879 30.2059 38.1879H30.8366C30.8869 38.1879 30.9229 38.202 30.944 38.2301C30.965 38.2582 30.9767 38.2862 30.9797 38.314L31.1058 40.0675L31.972 38.314C31.986 38.286 32.0097 38.2579 32.0434 38.2301C32.077 38.202 32.1192 38.1879 32.1695 38.1879H32.8633C32.897 38.1879 32.9187 38.2014 32.9286 38.2277C32.9383 38.2544 32.9362 38.283 32.9225 38.314L31.5307 41.001C31.5111 41.0317 31.4845 41.0613 31.4508 41.0894C31.4171 41.1175 31.3735 41.1315 31.3203 41.1315H30.5044V41.1318Z" fill="white"/>
    <path d="M32.801 41.1318C32.77 41.1318 32.7457 41.1213 32.7276 41.1002C32.7094 41.0792 32.703 41.0534 32.7085 41.0224L33.2888 38.2977C33.2944 38.2669 33.3105 38.2409 33.3371 38.2198C33.3638 38.1988 33.3924 38.1882 33.4234 38.1882H35.4839C35.5146 38.1882 35.5386 38.1988 35.5553 38.2198C35.5723 38.2409 35.5778 38.2669 35.5723 38.2977L35.4672 38.794C35.4616 38.8221 35.4456 38.8472 35.4189 38.8698C35.3923 38.8923 35.3636 38.9034 35.3326 38.9034H34.0333L33.9408 39.3198H35.1476C35.1784 39.3198 35.203 39.3304 35.2211 39.3514C35.2392 39.3725 35.2457 39.3986 35.2401 39.4293L35.1392 39.8834C35.1336 39.9142 35.1175 39.9402 35.0909 39.9613C35.0643 39.9824 35.0356 39.9929 35.0045 39.9929H33.7977L33.7094 40.4175H35.0423C35.073 40.4175 35.097 40.4286 35.1137 40.4512C35.1304 40.4737 35.1362 40.5003 35.1304 40.531L35.0253 41.023C35.0198 41.0537 35.0043 41.0797 34.9791 41.1008C34.9539 41.1219 34.9258 41.1324 34.8951 41.1324H32.801V41.1318Z" fill="white"/>
    <path d="M35.1029 25.0243L34.5153 26.4603L33.9303 25.0243H33.3597V27.3839H33.8527V26.079L34.3845 27.3839H34.6464L35.181 26.0767V27.3839H35.6741V25.0243H35.1029Z" fill="white"/>
    <path d="M30.8796 25.0243L29.9314 27.3839H30.4719L30.6604 26.9113H31.5854L31.7739 27.3839H32.3144L31.3633 25.0243H30.8796ZM30.8263 26.4465L31.1222 25.6895L31.4163 26.4465H30.8263Z" fill="white"/>
    <path d="M27.3042 27.3839H28.9286V26.9192H27.7973V26.4126H28.9063V25.9479H27.7973V25.4891H28.9286V25.0243H27.3042V27.3839Z" fill="white"/>
    <path d="M24.3205 25.4891H24.9947V27.3839H25.4878V25.4891H26.1655V25.0243H24.3205V25.4891Z" fill="white"/>
    <path d="M22.1731 25.2546C22.1731 25.171 22.1082 25.1171 22.03 25.1171H21.846V25.5689H21.9051V25.3907H21.987L22.1041 25.5689H22.1784L22.0572 25.3884C22.0836 25.3884 22.1725 25.355 22.1725 25.2546H22.1731ZM21.9054 25.3366V25.1692H22.03C22.0763 25.1692 22.1117 25.2043 22.1117 25.2546C22.1117 25.3009 22.0765 25.3366 22.03 25.3366H21.9054Z" fill="white"/>
    <path d="M21.997 24.9483C21.7795 24.9483 21.6028 25.123 21.6028 25.3421C21.6028 25.5613 21.7795 25.7363 21.997 25.7363C22.2144 25.7363 22.3908 25.5596 22.3908 25.3421C22.3908 25.1247 22.2161 24.9483 21.997 24.9483ZM21.997 25.6842C21.807 25.6842 21.6549 25.5297 21.6549 25.3421C21.6549 25.1546 21.8073 25.0021 21.997 25.0021C22.1866 25.0021 22.337 25.1528 22.337 25.3421C22.337 25.5315 22.1845 25.6842 21.997 25.6842Z" fill="white"/>
    <path d="M20.0518 25.6886L20.3725 26.0158L20.5987 25.7764V27.3839H21.0924V25.0243H20.6968L20.0518 25.6886Z" fill="white"/>
    <path d="M17.5346 27.3839H18.0277V26.4126H19.1367V25.9479H18.0277V25.4891H19.159V25.0243H17.5346V27.3839Z" fill="white"/>
    <path fill-rule="evenodd" clip-rule="evenodd" d="M18.3838 9.86588C20.0144 9.87378 21.6566 10.6074 21.6493 12.1818C21.6426 13.5522 20.8302 14.0933 20.0006 14.0895C19.1716 14.0857 19.1215 13.6602 19.1215 13.6602C19.1215 13.6602 20.0963 12.9435 20.0992 12.2602C20.101 11.9038 19.8426 10.9202 18.3417 10.9132C16.2578 10.903 15.1148 11.8769 15.1063 13.6511C15.0966 15.6875 21.1586 16.4273 21.1457 19.0605C21.1322 21.8768 18.1921 23.1202 15.5947 23.1079C14.236 23.1014 13.3426 22.2982 13.3487 21.0255C13.3557 19.5284 14.0794 18.0008 15.8619 18.0096C16.5539 18.0131 16.6526 18.6124 16.6523 18.7447C16.6523 18.7447 14.8611 19.2296 14.8526 21.0261C14.8511 21.3562 15.1914 21.961 16.0298 21.9651C16.8682 21.9689 19.3624 21.3928 19.3729 19.1755C19.3831 17.1332 13.3713 16.8013 13.3862 13.6116C13.4034 10.0207 17.0207 9.86003 18.3838 9.86617V9.86588ZM32.4542 11.9723C32.6667 11.8719 33.9982 11.6237 33.94 12.6875C33.8814 13.7509 33.0632 15.5933 32.9397 16.403C34.0307 15.8637 35.5796 14.0108 35.5796 14.0108C35.5796 14.0108 36.6679 14.1667 36.3194 14.8237C35.9714 15.4807 33.7667 17.0992 33.7667 17.0992C33.7667 17.0992 34.2253 21.844 37.1007 21.8575C38.6786 21.8654 39.359 21.1818 39.6554 20.9409C39.7329 20.8783 39.7909 20.8663 39.8114 20.9163C39.8708 21.0632 39.9392 21.5537 39.5758 21.9499C39.2612 22.2941 38.51 22.7079 37.0486 22.7005C34.4351 22.688 32.9991 20.5813 32.6427 17.4641C32.3466 18.3745 32.3656 19.8535 32.3091 20.576C32.2286 20.7147 30.7394 21.2903 30.6382 20.2895C30.6317 20.2246 30.6314 20.1423 30.637 20.0458C30.3596 20.4303 29.9838 20.8315 29.6251 20.8294C28.9897 20.8265 28.7164 20.2886 28.6005 20.0089C28.5125 20.1049 27.8046 20.8207 26.8957 20.816C26.4906 20.8142 25.8986 20.6348 25.6528 19.9966C25.1908 20.3299 24.3679 20.8043 23.4279 20.7993C22.4201 20.7943 22.1839 20.188 22.1863 19.6718C22.1904 18.8691 22.8175 16.4592 22.8175 16.4592C22.8175 16.4592 21.6353 16.9315 21.23 16.9298C20.6684 16.9272 20.403 15.8757 20.4033 15.8546C20.4033 15.8353 20.4156 15.816 20.4372 15.8081C20.7661 15.6864 23.1692 14.8793 23.1692 14.8793C23.1692 14.8793 23.6322 13.1147 23.6986 12.8894C23.765 12.6638 24.0919 12.1812 24.4884 12.0431C24.748 11.9529 25.153 11.8347 25.3795 11.8359C25.4775 11.8368 25.5475 11.8622 25.5472 11.9167C25.5466 11.9693 24.9277 14.5419 24.9277 14.5419C24.9277 14.5419 26.1737 14.2592 26.639 14.2615C26.9928 14.2633 27.1789 14.481 26.9852 14.7596C26.7918 15.0382 26.5544 15.3478 26.4292 15.4976C26.3039 15.6472 26.2167 15.6694 25.9039 15.7273C25.4901 15.8043 24.5435 16.0384 24.5435 16.0384C24.5435 16.0384 23.7762 18.7596 23.7741 19.2185C23.7727 19.4801 23.8514 19.7838 24.1782 19.7856C24.4899 19.7871 25.1033 19.4289 25.5416 19.1433C25.6309 17.0149 27.2881 15.6182 28.5801 15.6243C29.0003 15.6264 28.8437 16.0264 29.3119 16.0285C29.352 16.0288 29.5715 16.0247 29.6116 16.0247C29.7942 16.0255 30.0046 16.0548 30.0026 16.5175C29.9993 17.1861 29.6098 18.2823 29.6069 18.9689C29.6043 19.4634 29.6698 19.8102 29.8562 19.8108C30.1775 19.8122 30.5401 19.3546 30.7953 18.9554C31.2419 16.6418 32.4504 12.4355 32.4528 11.9714L32.4542 11.9723ZM38.2452 15.6785C39.126 15.6118 39.6732 16.0943 39.7713 16.3603C39.8681 16.6219 39.8526 17.2271 39.6045 17.6625C38.8284 19.0233 36.9289 18.7617 36.9289 18.7617C36.9289 18.7617 36.6957 19.8476 37.6842 19.852C38.5238 19.8558 38.901 19.4453 39.2609 19.1061C39.4046 19.0991 39.8485 19.5793 39.6384 19.8933C39.4766 20.1353 38.5925 20.8733 37.4598 20.8681C35.6723 20.8593 35.2308 19.3153 35.4804 18.2285C35.7912 16.8765 37.1633 15.7604 38.2452 15.6785ZM28.7632 16.5435C27.6931 16.5385 26.0277 19.7783 27.2819 19.7847C28.6547 19.7915 28.7551 17.1937 28.7627 16.6082L28.7632 16.5435ZM38.7064 16.3144C37.9768 16.3331 37.154 17.7123 37.0749 18.3274C38.1644 18.3763 38.7473 17.3245 38.8155 16.9093C38.8662 16.6026 38.8843 16.3094 38.7064 16.3144Z" fill="white"/>
    </svg>