<svg xmlns="http://www.w3.org/2000/svg" width="55" height="56" viewBox="0 0 55 56" fill="none">
    <path d="M48.8684 36.9929L48.7241 37.2244C48.6788 37.2971 48.6891 37.3543 48.7287 37.4159L49.8051 39.0138L49.8009 39.0205L47.8568 38.8159C47.7755 38.8062 47.7311 38.8196 47.6835 38.896L47.5353 39.134C47.4961 39.1969 47.4995 39.2501 47.5768 39.3029L49.596 40.6967C49.5991 40.6987 49.6024 40.7008 49.6058 40.7027C49.6748 40.7462 49.7241 40.7266 49.7716 40.6504L49.9403 40.379C49.9836 40.3093 50.0007 40.2603 49.9084 40.2023L48.7581 39.4516L48.7623 39.4449L50.3078 39.62C50.394 39.6282 50.4266 39.5981 50.4657 39.5352L50.5419 39.4126C50.5688 39.3698 50.5891 39.3227 50.5396 39.2547L49.6585 38.0054L49.6625 37.9988L50.8148 38.6724C50.9088 38.7273 50.9644 38.7341 51.0181 38.6482L51.2241 38.317C51.2611 38.2574 51.2499 38.2093 51.1876 38.1701C51.1843 38.1677 51.1808 38.1657 51.1777 38.1639L49.0081 36.9519C48.9469 36.9179 48.9096 36.9268 48.8683 36.993L48.8684 36.9929Z" fill="white"/>
    <path d="M35.2978 48.2685C34.5651 48.5163 34.3057 49.2222 34.5711 50.0135C34.8378 50.809 35.431 51.197 36.1711 50.9469C36.8632 50.7124 37.1767 50.0336 36.8978 49.2013C36.6457 48.4504 36.0674 48.008 35.2978 48.2685ZM36.022 50.4409C35.6723 50.5593 35.3878 50.3712 35.192 49.7872C35.0084 49.2395 35.1301 48.8814 35.4504 48.7729C35.8001 48.6547 36.076 48.829 36.2756 49.4246C36.4677 49.9979 36.3461 50.3314 36.0221 50.441L36.022 50.4409Z" fill="white"/>
    <path d="M7.3807 38.8318L7.18325 38.5091C7.14255 38.4424 7.09701 38.4202 7.02412 38.4653L5.72726 39.2668L5.72311 39.2604L6.43994 37.4515C6.46721 37.3842 6.46681 37.3387 6.42612 37.2723L6.25533 36.993C6.21246 36.923 6.17137 36.8934 6.08533 36.9465L3.98759 38.2436C3.90827 38.2928 3.91202 38.3361 3.95875 38.4125L4.1481 38.7218C4.189 38.7884 4.23552 38.8053 4.30842 38.7601L5.59549 37.9647L5.59964 37.971L4.89259 39.774C4.86533 39.841 4.87264 39.9054 4.90918 39.9654L5.08234 40.2479C5.11909 40.3079 5.15791 40.3342 5.24394 40.2809L7.33517 38.9882C7.39137 38.9533 7.43385 38.9181 7.3807 38.8318Z" fill="white"/>
    <path d="M43.8513 46.4321C43.8193 46.3883 43.7666 46.3693 43.7168 46.4062L43.5603 46.5224L42.4293 44.9835L42.598 44.8582C42.6449 44.8234 42.6575 44.7751 42.6162 44.7186L42.4913 44.549C42.4661 44.5145 42.4096 44.5032 42.3626 44.5381L41.525 45.1595C41.4813 45.1919 41.4816 45.2449 41.5091 45.2828L41.6317 45.4494C41.6638 45.4932 41.7167 45.5126 41.7665 45.4754L41.9324 45.3524L43.0635 46.8912L42.9196 46.9979C42.8726 47.0325 42.8597 47.081 42.9014 47.1376L43.0262 47.307C43.0515 47.3415 43.108 47.3529 43.1551 47.3181L43.958 46.722C44.0018 46.6895 44.0015 46.6364 43.9739 46.5988L43.8513 46.4321Z" fill="white"/>
    <path d="M46.8769 43.9993L45.101 42.2563C45.0509 42.2075 45.0123 42.2059 44.9553 42.2589L44.7554 42.444C44.6926 42.5024 44.6876 42.5603 44.7095 42.6302L45.3297 44.4564L45.324 44.462L43.5018 43.7506C43.4259 43.7197 43.3796 43.7207 43.3138 43.7816L43.1081 43.9722C43.0537 44.0227 43.0435 44.0748 43.1037 44.1461L44.6871 46.0248C44.6899 46.0277 44.6924 46.0309 44.695 46.0335C44.7503 46.0937 44.803 46.0875 44.8687 46.027L45.1028 45.8098C45.1624 45.7539 45.1921 45.7107 45.118 45.6307L44.2049 44.6021L44.2108 44.5967L45.6557 45.1743C45.7372 45.2052 45.7767 45.1847 45.8307 45.1343L45.9364 45.0363C45.9736 45.0019 46.0052 44.9618 45.9754 44.8832L45.4525 43.4448L45.4581 43.4392L46.3936 44.3941C46.4702 44.4721 46.5217 44.4932 46.5958 44.4244L46.8813 44.1595C46.9326 44.112 46.935 44.0624 46.8849 44.008C46.8821 44.0048 46.8792 44.002 46.877 43.9993H46.8769Z" fill="white"/>
    <path d="M40.507 46.4334L41.0939 46.081C41.164 46.0391 41.1973 45.9965 41.1644 45.9255L41.0334 45.6448C41.0294 45.6379 41.0275 45.6347 41.0254 45.6312C40.9996 45.5876 40.9604 45.5748 40.9003 45.611L39.1063 46.6875C39.0461 46.7238 39.032 46.7684 39.0658 46.8254L39.2132 47.0734C39.2531 47.1405 39.2997 47.1581 39.3664 47.1179L39.9766 46.7519L41.0543 48.5648C41.0961 48.6351 41.1087 48.6412 41.1786 48.5992L41.5557 48.3731C41.6223 48.333 41.6244 48.3135 41.5804 48.24L40.507 46.4334Z" fill="white"/>
    <path d="M48.1611 40.7934L47.0975 39.9053C47.0348 39.8531 46.9951 39.8705 46.9479 39.9274L46.7021 40.2247C46.6575 40.2786 46.6454 40.3297 46.7052 40.3796L47.7391 41.2426C48.2021 41.6296 48.2055 41.9062 47.9869 42.1705C47.756 42.4496 47.4876 42.4993 47.0187 42.1078L45.9877 41.2471C45.925 41.1945 45.885 41.2122 45.838 41.2694L45.5923 41.5665C45.5476 41.6206 45.5333 41.6747 45.5931 41.7246L46.6596 42.615C47.2929 43.144 47.8586 43.1444 48.3699 42.5257C48.8464 41.9494 48.8332 41.3547 48.161 40.7935L48.1611 40.7934Z" fill="white"/>
    <path d="M38.6246 47.2668C38.3534 47.1523 38.0389 47.2126 37.6298 47.4033L37.0804 47.66C36.9991 47.6981 36.9844 47.7307 37.0254 47.8188L38.0592 50.0567C38.0984 50.1417 38.1487 50.1483 38.2122 50.1188L38.5646 49.9546C38.6457 49.9166 38.6541 49.8699 38.6262 49.8093L38.2892 49.08C38.3294 49.0655 38.442 49.0214 38.4878 49.0005C39.0305 48.7469 39.3204 48.2716 39.0572 47.7019C38.9703 47.514 38.8168 47.3489 38.6246 47.2668ZM38.283 48.5663C38.2548 48.5796 38.1386 48.6339 38.0912 48.6515L37.736 47.8832L37.9089 47.8028C38.1727 47.6795 38.3804 47.7202 38.5046 47.9894C38.6225 48.2448 38.5471 48.4433 38.283 48.5663Z" fill="white"/>
    <path d="M11.9113 45.3593L11.691 44.9189C11.6423 44.8242 11.5703 44.665 11.6486 44.5681C11.7634 44.4253 11.9361 44.4903 12.0567 44.5884C12.1805 44.689 12.3097 44.864 12.3893 45.0195C12.4033 45.0461 12.4164 45.0668 12.4315 45.0789C12.4586 45.1012 12.4891 45.1007 12.5358 45.0732L12.8202 44.9128C12.8409 44.8994 12.8592 44.8894 12.8689 44.8771C12.8909 44.8498 12.8898 44.8136 12.8586 44.7533C12.7344 44.5166 12.5787 44.3248 12.3613 44.148C12.0079 43.8609 11.4454 43.7649 11.1327 44.1536C10.9272 44.4086 10.9237 44.7172 11.0642 45.002L11.3173 45.5192C11.377 45.6378 11.421 45.7691 11.3282 45.8846C11.2085 46.0333 10.9945 45.9698 10.8678 45.8669C10.7137 45.7415 10.5739 45.5675 10.4722 45.3897C10.4585 45.363 10.4457 45.348 10.4307 45.3357C10.3915 45.3037 10.3543 45.3189 10.3209 45.3418L10.0414 45.5215C10.0206 45.5345 9.9998 45.5478 9.98765 45.5629C9.96582 45.5905 9.96374 45.624 9.9998 45.6785C10.14 45.908 10.347 46.1416 10.5434 46.3009C10.9573 46.6374 11.5095 46.6645 11.8618 46.2276C12.084 45.9512 12.062 45.662 11.9112 45.3592L11.9113 45.3593Z" fill="white"/>
    <path d="M17.1561 47.7278L17.3259 47.4691C17.3292 47.4623 17.3313 47.4588 17.333 47.4552C17.3565 47.4102 17.3468 47.3702 17.2848 47.3373L17.1093 47.2449L15.4325 46.3645C15.3706 46.3319 15.325 46.3434 15.2946 46.4021L15.1613 46.6584C15.1252 46.7275 15.1349 46.7764 15.2037 46.8127L15.8337 47.1436L14.86 49.0153C14.8223 49.0881 14.8238 49.102 14.896 49.1399L15.2852 49.3443C15.354 49.3805 15.3716 49.3718 15.4111 49.2959L16.3812 47.4312L16.9871 47.7495C17.0594 47.7874 17.1133 47.7936 17.1562 47.7279L17.1561 47.7278Z" fill="white"/>
    <path d="M14.4967 45.7679L14.1613 45.5487C14.0994 45.5081 14.049 45.5217 13.9975 45.5578L11.8639 47.1479C11.849 47.1569 11.8404 47.1699 11.832 47.1832C11.813 47.2123 11.8143 47.2457 11.8501 47.2694L12.2213 47.5121C12.2799 47.5505 12.3295 47.5315 12.3699 47.4975L12.7546 47.1904L13.4412 47.6397L13.5586 47.7162L13.4429 48.181C13.4265 48.2493 13.4324 48.3046 13.5106 48.356L13.8752 48.5943C13.9208 48.6241 13.9605 48.6126 13.9858 48.5735C13.9944 48.5605 14.0018 48.5422 14.0078 48.5182L14.5671 45.9166C14.5784 45.8632 14.5618 45.8105 14.4967 45.7679ZM13.8855 46.4537L13.6729 47.2324L13.1391 46.8828L13.7599 46.3759C13.827 46.3219 13.8892 46.2693 13.9432 46.2211L13.9499 46.2254C13.93 46.2916 13.9094 46.3669 13.8854 46.4537H13.8855Z" fill="white"/>
    <path d="M9.24138 41.2293C9.1912 41.1747 9.13915 41.1754 9.08749 41.2228L7.276 42.8998C7.19895 42.9713 7.21367 43.0159 7.26889 43.0763L8.26911 44.1671C8.31396 44.2158 8.36809 44.2349 8.43091 44.1767L8.64812 43.9756C8.69959 43.928 8.70739 43.8732 8.65741 43.8186L7.98631 43.0865L9.50048 41.6847C9.56616 41.6242 9.56537 41.5825 9.50739 41.5192L9.24158 41.2293H9.24138Z" fill="white"/>
    <path d="M6.61261 41.6527L8.12262 40.4882L8.25025 40.6555C8.2859 40.702 8.33421 40.7137 8.38962 40.6712L8.55586 40.5427C8.58984 40.5164 8.60012 40.4595 8.56466 40.4129L7.9307 39.5833C7.89771 39.5399 7.84476 39.5413 7.80792 39.5696L7.64464 39.6957C7.60137 39.7287 7.5833 39.7823 7.62113 39.8319L7.74658 39.9959L6.23686 41.1602L6.12791 41.018C6.09254 40.9716 6.04414 40.9595 5.98883 41.0024L5.82239 41.1306C5.78821 41.1568 5.77803 41.214 5.81379 41.2602L6.42157 42.0562C6.45466 42.0995 6.50761 42.0981 6.54435 42.0695L6.70783 41.9435C6.7511 41.9105 6.76888 41.8571 6.73114 41.8076L6.61281 41.6527H6.61261Z" fill="white"/>
    <path d="M19.0204 48.1453C19.0364 48.1055 19.0162 48.0508 18.9623 48.029L17.9967 47.6377C17.9462 47.6171 17.9015 47.6456 17.884 47.6887L17.807 47.8806C17.7866 47.9314 17.798 47.9863 17.8555 48.01L18.0467 48.0873L17.3344 49.8612L17.1689 49.7942C17.1148 49.772 17.067 49.7865 17.0409 49.8517L16.9624 50.047C16.9464 50.0871 16.9665 50.1415 17.0203 50.1634L17.9464 50.5389C17.9969 50.559 18.0415 50.5314 18.0591 50.4875L18.1361 50.2958C18.1565 50.2453 18.1451 50.1899 18.0874 50.1667L17.9072 50.0935L18.6194 48.3197L18.8142 48.3985C18.8682 48.4207 18.9158 48.4059 18.9419 48.3408L19.0206 48.1454L19.0204 48.1453Z" fill="white"/>
    <path d="M30.0014 50.6564L29.54 50.4895C29.4398 50.4548 29.279 50.3894 29.2692 50.2647C29.2547 50.0819 29.4242 50.0095 29.5791 49.9971C29.7378 49.9843 29.9512 50.0225 30.1156 50.0796C30.1435 50.0889 30.1677 50.0952 30.1871 50.0935C30.2217 50.0909 30.2434 50.0697 30.259 50.0173L30.3547 49.7044C30.3609 49.6804 30.3669 49.6602 30.3657 49.6447C30.3629 49.6096 30.3375 49.5846 30.2735 49.5621C30.0211 49.4765 29.7769 49.4449 29.4984 49.4671C29.0451 49.5037 28.5718 49.8233 28.6112 50.3214C28.6374 50.6485 28.8459 50.8741 29.1429 50.9837L29.6809 51.1835C29.8054 51.2283 29.9273 51.293 29.9391 51.4405C29.9542 51.6316 29.7556 51.7335 29.5929 51.7461C29.3956 51.7622 29.1749 51.7328 28.9793 51.6741C28.9514 51.6647 28.9317 51.6624 28.9124 51.6639C28.8617 51.6679 28.8454 51.7042 28.8369 51.7442L28.7572 52.0674C28.7513 52.0916 28.7453 52.1157 28.7468 52.135C28.7497 52.1698 28.7711 52.1959 28.8346 52.2103C29.0935 52.2798 29.4035 52.3058 29.6551 52.2856C30.1856 52.2432 30.6049 51.8806 30.5606 51.3206C30.5325 50.9666 30.3186 50.772 30.0014 50.6564Z" fill="white"/>
    <path d="M32.7057 51.5184C32.6966 51.4644 32.6581 51.4237 32.5967 51.4344L32.4052 51.4675L32.0791 49.5834L32.2861 49.547C32.3434 49.5372 32.3764 49.4997 32.3645 49.4307L32.3287 49.223C32.3213 49.1805 32.2758 49.1451 32.2182 49.155L31.1929 49.334C31.1392 49.3436 31.1159 49.3911 31.1238 49.4371L31.1591 49.6412C31.1682 49.6949 31.2068 49.7358 31.2681 49.725L31.4709 49.6896L31.797 51.5738L31.6208 51.6046C31.5635 51.6148 31.5306 51.652 31.5424 51.7215L31.5783 51.929C31.5856 51.9713 31.6311 52.0071 31.6887 51.9971L32.6722 51.8255C32.7256 51.8158 32.7491 51.7684 32.7412 51.7224L32.7058 51.5185L32.7057 51.5184Z" fill="white"/>
    <path d="M27.737 49.611L26.6962 49.5952C26.6416 49.5943 26.6101 49.6371 26.6093 49.6839L26.6064 49.8904C26.6055 49.9452 26.6358 49.9927 26.6979 49.9935L26.9039 49.9967L26.8754 51.9088L26.6965 51.9063C26.6384 51.9055 26.5991 51.9361 26.5978 52.0065L26.5949 52.217C26.5941 52.2599 26.6322 52.3034 26.6906 52.3045L27.6889 52.3193C27.7432 52.3203 27.7746 52.2779 27.7756 52.2308L27.7789 52.0242C27.7795 51.9694 27.749 51.9221 27.687 51.9213L27.4927 51.9181L27.5212 50.0061L27.731 50.0091C27.789 50.0101 27.8284 49.9793 27.8298 49.9091L27.8325 49.6985C27.8331 49.6554 27.795 49.6119 27.7368 49.6111L27.737 49.611Z" fill="white"/>
    <path d="M21.2947 48.8923C21.0908 48.7205 20.8745 48.6019 20.6069 48.521C20.1715 48.3893 19.6146 48.5144 19.4713 48.9929C19.3771 49.3069 19.49 49.5939 19.7271 49.8041L20.156 50.1869C20.2559 50.2741 20.3462 50.3788 20.3034 50.5207C20.2486 50.704 20.0268 50.7265 19.8707 50.6793C19.681 50.6219 19.486 50.514 19.325 50.3878C19.3024 50.3688 19.2849 50.3595 19.2662 50.3536C19.2177 50.3393 19.189 50.3674 19.1668 50.4013L18.9756 50.6734C18.9615 50.6937 18.9473 50.7137 18.9416 50.7325C18.9315 50.7662 18.9422 50.7982 18.9964 50.8348C19.2124 50.9938 19.4917 51.1313 19.7334 51.2044C20.2432 51.3589 20.7651 51.1741 20.9264 50.6359C21.0284 50.2956 20.8991 50.0363 20.6454 49.8129L20.276 49.4892C20.1953 49.4198 20.0689 49.3 20.1049 49.1803C20.1573 49.0048 20.3415 48.9993 20.4906 49.0442C20.643 49.0906 20.8283 49.2036 20.9607 49.317C20.9833 49.3361 21.0034 49.3505 21.0219 49.356C21.0555 49.3661 21.0833 49.3543 21.1163 49.3113L21.3193 49.0544C21.3335 49.0343 21.3464 49.018 21.351 49.003C21.3611 48.9694 21.3463 48.9363 21.2947 48.8923Z" fill="white"/>
    <path d="M25.6559 49.5536L25.2819 49.5067C25.2049 49.4971 25.1591 49.5191 25.1487 49.6041L24.9615 51.123L24.9535 51.1219L23.9957 49.4291C23.9605 49.3658 23.9248 49.3379 23.8478 49.3284L23.524 49.2878C23.443 49.2776 23.3943 49.2912 23.382 49.3922L23.079 51.8484C23.0672 51.9412 23.1038 51.9656 23.1924 51.9767L23.5508 52.021C23.6281 52.0308 23.6704 52.0048 23.6809 51.9194L23.8666 50.4123L23.8744 50.4131L24.8337 52.0944C24.8689 52.1576 24.9235 52.1921 24.993 52.2007L25.3205 52.2416C25.3901 52.2499 25.4347 52.236 25.4472 52.1353L25.7491 49.6869C25.7573 49.6209 25.7563 49.5657 25.656 49.5535L25.6559 49.5536Z" fill="white"/>
    <path d="M54.847 34.8478C54.8353 34.8205 54.8132 34.7989 54.7855 34.7882L51.3847 33.4485C51.4479 33.2099 51.5709 32.8695 51.8039 32.523L53.5582 33.3158C53.6156 33.341 53.6752 33.3543 53.7368 33.3543C53.8963 33.3543 54.0442 33.2667 54.1223 33.1259C54.1712 33.05 54.3058 32.8265 54.4178 32.5317C54.5952 32.0661 54.633 31.6511 54.5312 31.2974C54.426 30.9317 54.1694 30.6489 53.79 30.4786L49.1092 28.2816C49.1013 28.2773 49.0902 28.2728 49.0791 28.2671L49.0719 28.2641C48.8383 28.1596 48.3168 28.0138 47.717 28.4536C47.7244 28.2489 47.7297 28.0433 47.7297 27.8378C47.7297 26.6885 47.5398 25.1809 47.3516 24.1993C47.1362 22.9888 46.7208 21.5341 46.4271 20.6977L46.1746 19.9345L46.1694 19.9205C45.9876 19.4268 45.8172 18.9206 45.6628 18.4163C45.1571 16.7643 44.8553 15.238 44.8553 14.3331C44.8553 12.786 46.2012 10.3771 47.9848 8.72988L48.8212 7.95794V7.95764L40.3358 0.110434L39.6663 0.556514C38.1129 1.59269 36.1025 2.16343 34.006 2.16343C31.8071 2.16343 29.7263 1.54479 28.1476 0.421189L27.5552 0L26.9634 0.421189C25.3843 1.54479 23.3039 2.16343 21.105 2.16343C19.008 2.16343 16.998 1.59269 15.4441 0.556514L14.7752 0.110434L6.29128 7.95734V7.95813L7.12714 8.72998C8.91137 10.3774 10.2569 12.7862 10.2569 14.3332C10.2569 15.2377 9.95535 16.7642 9.4497 18.4164C9.29531 18.9211 9.12492 19.4271 8.94288 19.9211L8.68635 20.6951C8.3912 21.5363 7.97564 22.9917 7.76159 24.1971C7.57303 25.1808 7.38298 26.6884 7.38298 27.8377C7.38298 28.0436 7.38821 28.2496 7.39582 28.4543C6.79594 28.0138 6.27439 28.1591 6.04039 28.264L6.03308 28.267C6.02231 28.2727 6.01125 28.2772 6.00315 28.2815L1.32217 30.4785C0.942664 30.6488 0.686435 30.9316 0.581039 31.2973C0.479001 31.651 0.517327 32.066 0.694534 32.5316C0.806647 32.8263 0.941183 33.0499 0.990176 33.1258C1.06811 33.2667 1.21578 33.3542 1.37571 33.3542C1.43705 33.3542 1.4971 33.3409 1.5541 33.3157L3.30829 32.5229C3.54151 32.8694 3.66419 33.2098 3.72761 33.4484L0.326587 34.7882C0.299028 34.7989 0.277099 34.8205 0.265444 34.8478C0.253393 34.8754 0.252998 34.9061 0.263962 34.9339L0.468827 35.4587C2.59433 40.9 6.20604 45.5515 10.9133 48.9104C15.286 52.0326 20.4078 53.8584 25.7281 54.1913L27.4783 55.967C27.5 55.9891 27.5283 56 27.5568 56C27.5848 56 27.6131 55.9891 27.6344 55.9668L29.3851 54.1913V54.1911C34.705 53.8584 39.8267 52.0325 44.1991 48.9104C48.9065 45.5515 52.5181 40.9 54.6435 35.4587L54.8485 34.9339C54.8592 34.9061 54.8586 34.8754 54.847 34.8478ZM49.4647 30.7395C49.6349 30.2868 49.6905 29.8169 49.6213 29.4162C49.616 29.3864 49.6105 29.3579 49.6041 29.329L49.5562 29.1085L53.563 30.9892C53.7983 31.0949 53.9414 31.2472 54.0015 31.4548C54.1267 31.8882 53.8635 32.4519 53.7446 32.6736L53.6956 32.7646L49.4273 30.8386L49.4647 30.7396V30.7395ZM47.6214 29.732C47.9363 29.2276 48.272 28.9401 48.5665 28.9401H48.5681L48.7783 28.9908C48.9228 29.0646 49.0329 29.2552 49.0773 29.5131C49.1364 29.8517 49.0757 30.2521 48.9074 30.6399L48.874 30.7215C48.8732 30.723 48.8703 30.7295 48.8679 30.7358C48.7831 30.9593 48.8862 31.2093 49.1031 31.3058L49.4803 31.476L51.1606 32.2294L50.7328 33.1926L48.2307 32.2095C48.1581 32.1806 48.0829 32.1661 48.0088 32.166C47.8124 32.1665 47.635 32.2661 47.521 32.4397L47.5111 32.4561C47.4414 32.5747 47.2289 32.8457 47.0454 32.8867C47.0316 32.8897 47.0177 32.8915 47.0047 32.8915C46.9914 32.8915 46.9782 32.8899 46.965 32.8869C47.2821 31.8596 47.5019 30.8042 47.6215 29.7319L47.6214 29.732ZM46.988 33.5937C47.0536 33.5937 47.1199 33.5852 47.1848 33.5688C47.5474 33.4784 47.854 33.0768 48.0028 32.8594C48.0179 32.8404 48.0406 32.828 48.0656 32.828C48.0759 32.828 48.0857 32.8306 48.0943 32.8342L48.3009 32.923L48.4748 32.9915C48.2837 33.4714 47.9927 34.1558 47.7259 34.7054L46.4716 34.2414H46.4714C46.5262 34.0883 46.6656 33.7004 46.7161 33.5459C46.8045 33.5775 46.8952 33.5936 46.9881 33.5936L46.988 33.5937ZM47.4539 35.246C45.7726 38.4917 43.3627 41.2829 40.3872 43.4056C36.9638 45.8459 32.9839 47.2432 28.8082 47.4819L30.0848 46.186C34.8428 45.64 39.2445 43.5434 42.4841 40.2782C44.0971 38.653 45.3631 36.7983 46.2477 34.8025L47.4538 35.246H47.4539ZM8.77387 24.3906C8.98742 23.1877 9.40269 21.7693 9.6599 21.0386L9.90833 20.2871C10.1 19.7667 10.276 19.2421 10.4337 18.7268C10.965 16.9903 11.2874 15.3568 11.2874 14.3333C11.2874 12.3757 9.70633 9.70512 7.83834 7.97305L7.82254 7.95616L14.8781 1.43149C16.5382 2.53859 18.718 3.21018 21.1052 3.21018C23.6019 3.21018 25.8698 2.47764 27.5554 1.27818C29.2413 2.47764 31.5089 3.21018 34.0061 3.21018C36.393 3.21018 38.5725 2.53859 40.2328 1.43149L47.2897 7.95645L47.274 7.97295C45.4062 9.70522 43.825 12.3753 43.825 14.3332C43.825 15.3565 44.1475 16.99 44.6789 18.7267C44.8368 19.2417 45.0126 19.7663 45.2039 20.2867L45.4529 21.0381C45.7097 21.769 46.1252 23.1877 46.3386 24.3906H46.3384C46.527 25.3733 46.6991 26.8056 46.6991 27.8377C46.6991 36.8397 39.2187 44.2484 29.6145 45.1837L27.5562 47.2733L25.4983 45.1839C15.894 44.2483 8.41333 36.8397 8.41333 27.8377C8.41333 26.8058 8.5854 25.3735 8.77387 24.3906ZM26.3043 47.4818C22.1285 47.243 18.1486 45.8458 14.7251 43.4055C11.7499 41.2829 9.33996 38.4917 7.65886 35.2459L8.86494 34.8023C9.74959 36.7982 11.0155 38.6529 12.6283 40.2782C15.8683 43.5436 20.2699 45.6401 25.028 46.186L26.3043 47.4819V47.4818ZM8.63923 34.2414H8.63874L7.38475 34.7054C7.11815 34.1559 6.82725 33.4715 6.63612 32.9915L6.80997 32.923L7.01612 32.8342C7.0254 32.8306 7.03488 32.828 7.04516 32.828C7.07015 32.828 7.09237 32.8404 7.10828 32.8594C7.25694 33.0768 7.56315 33.4784 7.92546 33.5688C7.99066 33.5852 8.05713 33.5937 8.12282 33.5937C8.21538 33.5937 8.30635 33.5776 8.39446 33.546C8.44513 33.7004 8.58441 34.0884 8.63913 34.2415L8.63923 34.2414ZM6.00937 31.3058C6.22589 31.2093 6.32941 30.9592 6.24446 30.7358C6.2419 30.7296 6.23933 30.723 6.23864 30.7215L6.20485 30.6399C6.03654 30.252 5.97618 29.8517 6.03486 29.5131C6.0796 29.2552 6.18974 29.0646 6.33415 28.9908L6.35598 28.9801C6.41673 28.9535 6.48025 28.9402 6.54406 28.9402C6.83911 28.9402 7.17446 29.2276 7.48966 29.7321C7.60918 30.8044 7.82866 31.8597 8.14594 32.8871C8.12016 32.8931 8.09477 32.8931 8.06701 32.8869C7.88358 32.8459 7.67101 32.5749 7.60167 32.4563L7.5916 32.4399C7.4778 32.2662 7.29961 32.1662 7.10353 32.1662C7.02866 32.1662 6.95369 32.1808 6.8804 32.2097L4.37806 33.1928C4.30062 32.9243 4.17043 32.5843 3.95035 32.2296L6.00947 31.306L6.00937 31.3058ZM1.4164 32.7645L1.3677 32.6735C1.24907 32.4518 0.985633 31.8881 1.11059 31.4547C1.17064 31.2471 1.31417 31.0948 1.54946 30.9891L5.55638 29.1084L5.50817 29.3289C5.50215 29.3578 5.49622 29.3863 5.49118 29.4161C5.42164 29.8169 5.47755 30.2867 5.64765 30.7394L5.68508 30.8384L1.4164 32.7644V32.7645ZM54.0199 35.3271C51.9348 40.6076 48.414 45.1244 43.8386 48.3891C39.5015 51.4863 34.4173 53.2769 29.1364 53.5674L29.11 53.569L27.556 55.1455L26.0028 53.569L25.9762 53.5674C20.6958 53.277 15.6119 51.4864 11.2741 48.3891C6.69884 45.1244 3.1781 40.6076 1.0931 35.3271L1.03937 35.1908L6.04849 33.2181L6.10133 33.3509C7.79982 37.6249 10.657 41.2821 14.3641 43.9269C18.0652 46.5655 22.424 48.0247 26.9685 48.1468L27.0254 48.1483L27.5561 48.6873L28.0872 48.1483L28.1446 48.1468C32.6886 48.0248 37.0471 46.5657 40.7488 43.9269C44.4562 41.2821 47.3132 37.625 49.0115 33.3509L49.0644 33.2181L54.0733 35.1908L54.0198 35.3271H54.0199Z" fill="white"/>
    <path d="M20.0947 12.033C20.3662 11.8581 20.5582 11.6141 20.6243 11.3899C20.4167 11.3417 20.1311 11.4051 19.8596 11.5799C19.5879 11.7546 19.3968 11.9983 19.3301 12.2227C19.538 12.2709 19.8235 12.2074 20.0947 12.033Z" fill="white"/>
    <path d="M18.7914 12.7948C18.9729 12.9187 19.2601 12.9665 19.5689 12.9049C19.8774 12.8427 20.1319 12.6859 20.2631 12.4998C20.0821 12.3762 19.794 12.328 19.4862 12.3899C19.1774 12.4518 18.9226 12.6088 18.7914 12.7948Z" fill="white"/>
    <path d="M19.52 8.5021C19.4868 8.71151 19.545 8.99471 19.6925 9.2619C19.8401 9.5284 20.0415 9.71391 20.2241 9.77475C20.2576 9.56594 20.1994 9.28215 20.0519 9.01535C19.904 8.74835 19.7029 8.56344 19.52 8.5021Z" fill="white"/>
    <path d="M20.7495 10.1076C20.9502 9.83906 21.0545 9.53611 21.0472 9.30023C20.8369 9.33519 20.589 9.5045 20.389 9.77308C20.1882 10.0417 20.0842 10.3441 20.0915 10.5808C20.3015 10.5456 20.5494 10.376 20.7495 10.1076Z" fill="white"/>
    <path d="M19.5258 11.4018C19.6916 11.2535 19.8291 10.968 19.88 10.6235C19.9319 10.2792 19.8844 9.95907 19.7711 9.75925C19.6053 9.90761 19.4684 10.1934 19.4166 10.5373C19.3653 10.882 19.4122 11.2019 19.5258 11.4018Z" fill="white"/>
    <path d="M20.3963 10.5782C20.125 10.7528 19.9328 10.9964 19.867 11.2211C20.0747 11.2692 20.3602 11.2057 20.6313 11.031C20.9028 10.8564 21.0945 10.6126 21.1609 10.3882C20.9533 10.3402 20.6675 10.4037 20.3963 10.5782Z" fill="white"/>
    <path d="M20.3298 9.47437C20.5291 9.39337 20.742 9.17221 20.8897 8.86422C21.0379 8.55653 21.0854 8.23678 21.0356 8.00683C20.836 8.08812 20.6237 8.30929 20.4755 8.61718C20.3274 8.92487 20.28 9.24422 20.3298 9.47437Z" fill="white"/>
    <path d="M20.1829 8.82688C20.3493 8.68 20.4885 8.39582 20.5424 8.05148C20.596 7.70753 20.5508 7.38739 20.4383 7.18658C20.272 7.33336 20.1327 7.61834 20.0792 7.96218C20.0256 8.30642 20.0705 8.62627 20.1829 8.82688Z" fill="white"/>
    <path d="M19.9293 7.83614C20.0612 7.65083 20.1387 7.3383 20.1201 6.99011C20.102 6.64093 19.9925 6.34124 19.8419 6.17411C19.71 6.35961 19.6331 6.67185 19.6515 7.02063C19.6695 7.36872 19.7791 7.66911 19.9293 7.83614Z" fill="white"/>
    <path d="M19.2988 8.13514C19.5182 8.33211 19.7635 8.43227 19.9537 8.42199C19.9225 8.21258 19.783 7.96682 19.5643 7.76957C19.3452 7.5727 19.0999 7.47254 18.9098 7.48262C18.9406 7.69202 19.0801 7.93818 19.2988 8.13514Z" fill="white"/>
    <path d="M19.506 7.48202C19.5322 7.24743 19.4523 6.93558 19.2738 6.64873C19.0955 6.36169 18.8616 6.16848 18.6557 6.11306C18.6292 6.34766 18.7093 6.6592 18.8876 6.94635C19.0661 7.2336 19.2997 7.42651 19.5061 7.48202H19.506Z" fill="white"/>
    <path d="M19.2091 12.0261C19.3522 11.7158 19.3953 11.395 19.3417 11.1659C19.1431 11.2509 18.9343 11.4766 18.7908 11.7873C18.6481 12.098 18.6056 12.4184 18.6592 12.647C18.8569 12.5624 19.0661 12.3371 19.2091 12.0261Z" fill="white"/>
    <path d="M18.7029 13.5393C19.0147 13.579 19.2986 13.51 19.4725 13.374C19.3312 13.1973 19.0679 13.0591 18.7565 13.019C18.4451 12.9793 18.1608 13.0478 17.9872 13.184C18.1284 13.3611 18.3915 13.499 18.7029 13.5393Z" fill="white"/>
    <path d="M17.9737 13.0481C18.235 12.8558 18.413 12.5987 18.4666 12.3703C18.2568 12.3368 17.9752 12.4196 17.7139 12.6123C17.4529 12.8056 17.275 13.0623 17.2213 13.2908C17.4314 13.3244 17.7128 13.2418 17.9737 13.0481Z" fill="white"/>
    <path d="M15.9058 13.4213C15.5999 13.4978 15.3518 13.6672 15.2282 13.8593C15.4138 13.9741 15.703 14.0087 16.0092 13.9316C16.304 13.8575 16.5455 13.6975 16.6731 13.5133C16.7113 13.5478 16.7482 13.5833 16.7844 13.6196C16.4433 13.8175 16.1473 14.0809 15.8903 14.4178C15.9915 14.578 16.0421 14.6583 16.1432 14.8183C16.3387 14.3759 16.5772 14.0074 16.8646 13.7038C17.1393 14.005 17.3469 14.3679 17.5436 14.8129C17.6446 14.6529 17.6951 14.5726 17.7962 14.4124C17.5387 14.0743 17.2721 13.817 16.945 13.6223C16.9814 13.5864 17.0187 13.5514 17.0566 13.5171C17.185 13.6996 17.425 13.8581 17.7181 13.9317C18.0239 14.0087 18.3135 13.9741 18.4988 13.8594C18.3756 13.6673 18.1271 13.498 17.821 13.4214C17.5659 13.3574 17.3229 13.3717 17.1411 13.4444C16.9675 13.5139 16.8635 13.5755 16.8635 13.5755C16.7856 13.5329 16.7038 13.4937 16.6185 13.4573C16.6136 13.4552 16.6086 13.453 16.604 13.4511C16.6019 13.4501 16.5998 13.4492 16.5976 13.4483L16.5984 13.4491C16.4155 13.3721 16.167 13.3561 15.906 13.4215L15.9058 13.4213Z" fill="white"/>
    <path d="M15.7354 13.0481C15.9967 13.2417 16.2781 13.3244 16.4878 13.2908C16.4346 13.0623 16.2563 12.8057 15.9955 12.6123C15.7339 12.4196 15.4528 12.3368 15.2425 12.3703C15.2964 12.5987 15.4741 12.8558 15.7354 13.0481Z" fill="white"/>
    <path d="M14.237 13.374C14.4106 13.51 14.6949 13.579 15.0063 13.5393C15.318 13.499 15.581 13.3611 15.7224 13.184C15.549 13.0478 15.2642 12.9793 14.9527 13.019C14.6413 13.0592 14.3783 13.1974 14.237 13.374Z" fill="white"/>
    <path d="M14.3678 11.1659C14.3144 11.395 14.357 11.7158 14.5 12.0261C14.643 12.3371 14.8525 12.5625 15.0503 12.6471C15.1038 12.4185 15.0613 12.0981 14.9177 11.7874C14.7751 11.4766 14.5659 11.251 14.3678 11.166L14.3678 11.1659Z" fill="white"/>
    <path d="M14.8216 6.94635C15.0002 6.6592 15.08 6.34766 15.0539 6.11306C14.8473 6.16848 14.6136 6.36169 14.4351 6.64873C14.2568 6.93558 14.1773 7.24743 14.2032 7.48202C14.4094 7.42651 14.6434 7.2336 14.8216 6.94635Z" fill="white"/>
    <path d="M14.4103 8.13514C14.629 7.93818 14.7689 7.69202 14.7995 7.48262C14.6093 7.47254 14.364 7.5727 14.1455 7.76957C13.9261 7.96682 13.786 8.21258 13.7557 8.42199C13.946 8.43227 14.1909 8.33211 14.4103 8.13514Z" fill="white"/>
    <path d="M14.017 9.2619C14.1641 8.99471 14.2227 8.71151 14.1892 8.5021C14.0065 8.56344 13.8052 8.74845 13.6575 9.01545C13.5102 9.28215 13.4519 9.56604 13.4854 9.77485C13.668 9.71401 13.8693 9.5284 14.0169 9.262L14.017 9.2619Z" fill="white"/>
    <path d="M12.6622 9.30013C12.6545 9.53601 12.7589 9.83896 12.959 10.1075C13.1597 10.3758 13.4076 10.5455 13.6178 10.5807C13.6254 10.344 13.5211 10.0417 13.3204 9.77298C13.12 9.5044 12.8722 9.33509 12.6622 9.30013Z" fill="white"/>
    <path d="M14.1833 11.4018C14.2966 11.2019 14.3438 10.882 14.2926 10.5373C14.2414 10.1934 14.1035 9.90761 13.9385 9.75925C13.8251 9.95907 13.7777 10.2792 13.8289 10.6235C13.8805 10.968 14.0182 11.2535 14.1833 11.4018Z" fill="white"/>
    <path d="M14.0581 7.02053C14.0765 6.67165 13.9992 6.35951 13.8673 6.17401C13.7167 6.34114 13.6072 6.64093 13.5892 6.99001C13.5705 7.3382 13.6484 7.65074 13.7799 7.83604C13.9308 7.66901 14.0401 7.36863 14.0581 7.02053Z" fill="white"/>
    <path d="M13.5262 8.82688C13.6386 8.62627 13.6837 8.30652 13.6301 7.96228C13.5765 7.61834 13.4373 7.33346 13.2707 7.18668C13.1585 7.38759 13.1134 7.70763 13.167 8.05158C13.2206 8.39582 13.3595 8.68 13.5262 8.82688Z" fill="white"/>
    <path d="M13.3794 9.47437C13.4295 9.24422 13.382 8.92497 13.2337 8.61718C13.0857 8.30929 12.873 8.08802 12.6738 8.00683C12.624 8.23678 12.6715 8.55653 12.8194 8.86422C12.9675 9.17221 13.1798 9.39337 13.3794 9.47437Z" fill="white"/>
    <path d="M13.8426 11.2212C13.7763 10.9965 13.5845 10.7529 13.313 10.5783C13.0418 10.4037 12.7563 10.3402 12.5484 10.3883C12.6147 10.6127 12.8068 10.8566 13.0782 11.0311C13.3496 11.2058 13.6349 11.2694 13.8426 11.2212Z" fill="white"/>
    <path d="M14.3794 12.2227C14.3126 11.9983 14.121 11.7546 13.8496 11.5799C13.578 11.405 13.2929 11.3417 13.0855 11.3899C13.1514 11.6141 13.343 11.8582 13.6146 12.033C13.886 12.2074 14.1711 12.2709 14.3794 12.2227Z" fill="white"/>
    <path d="M14.9177 12.7948C14.7867 12.6089 14.5321 12.4517 14.2233 12.3898C13.9151 12.328 13.6273 12.3761 13.4464 12.4997C13.5768 12.6858 13.8315 12.8426 14.1403 12.9048C14.449 12.9664 14.7369 12.9186 14.9177 12.7947V12.7948Z" fill="white"/>
    <path d="M24.4484 41.9557V40.3248C24.4484 40.1352 24.4663 39.8197 24.5059 39.5416L24.508 39.5282L24.451 39.4719L24.4358 39.476C24.3486 39.501 24.2472 39.5288 24.1558 39.547L23.6554 39.6544C23.5132 39.6854 23.4324 39.6941 23.3098 39.7073L23.2905 39.7092L23.2862 39.728C23.2637 39.8232 23.2184 39.9326 23.1857 39.9942L23.175 40.0147L23.241 40.0649L23.2556 40.0593C23.3041 40.0401 23.351 40.0234 23.4217 40.0068L23.6588 39.9531C23.7312 39.9362 23.7879 39.9273 23.8269 39.9273C23.9653 39.9273 24.0007 39.9729 24.0007 40.3912V41.906C24.0007 42.1994 23.9817 42.4654 23.9426 42.7195L23.9373 42.7529L23.9709 42.7508C24.0769 42.745 24.1671 42.7421 24.2468 42.7421C24.3551 42.7421 24.4573 42.7477 24.5084 42.7508L24.5492 42.7535L24.5358 42.7146C24.4785 42.5487 24.4485 42.286 24.4485 41.9555L24.4484 41.9557Z" fill="white"/>
    <path d="M29.4917 39.8675L29.4864 39.8524C29.4698 39.8059 29.4386 39.5998 29.4345 39.5552L29.4319 39.528L29.4048 39.5307C29.2676 39.5435 29.1978 39.5435 29.045 39.5435H27.8703C27.7374 39.5435 27.6122 39.5435 27.4925 39.535L27.4677 39.5332L27.4635 39.5577C27.4471 39.6582 27.4028 39.9084 27.3484 40.0577L27.3394 40.0825L27.4228 40.1157L27.4348 40.1067C27.6076 39.9808 27.8132 39.9644 27.9728 39.9644H28.9973L27.361 42.7468L27.4027 42.83L27.421 42.8286C27.6406 42.811 28.0143 42.8065 28.0181 42.8065L28.0426 42.8062L28.0449 42.7815C28.0831 42.3533 28.246 41.9292 28.6671 41.1615C28.9287 40.6867 29.23 40.163 29.4811 39.8795L29.4916 39.8674L29.4917 39.8675Z" fill="white"/>
    <path d="M26.3707 40.9565C26.6747 40.785 26.9591 40.5761 26.9591 40.1613C26.9591 39.7135 26.5866 39.3879 26.0733 39.3879C25.5446 39.3879 25.1303 39.7669 25.1303 40.2507C25.1303 40.6503 25.3997 40.8781 25.6759 41.0456C25.2385 41.3023 24.9694 41.5529 24.9694 41.9799C24.9694 42.4853 25.3757 42.8384 25.9576 42.8384C26.5999 42.8384 27.0662 42.4322 27.0662 41.8728C27.0662 41.4177 26.7375 41.1614 26.3707 40.9566V40.9565ZM25.5459 40.1587C25.5459 39.8573 25.7751 39.6323 26.0811 39.6323C26.3917 39.6323 26.6215 39.8614 26.6215 40.1721C26.6215 40.519 26.3698 40.6948 26.1129 40.8386C25.8251 40.6722 25.5459 40.4921 25.5459 40.1587ZM26.0008 42.6033C25.6268 42.6033 25.3568 42.3336 25.3568 41.9688C25.3568 41.5767 25.6584 41.3382 25.9736 41.1851C26.4014 41.4193 26.6711 41.6129 26.6711 41.973C26.6711 42.3283 26.3785 42.6033 26.0007 42.6033H26.0008Z" fill="white"/>
    <path d="M30.8715 41.0229C31.1748 40.8517 31.4593 40.643 31.4593 40.2281C31.4593 39.7797 31.0871 39.4542 30.574 39.4542C30.0452 39.4542 29.631 39.8334 29.631 40.3174C29.631 40.7174 29.8999 40.9449 30.1758 41.1119C29.739 41.3682 29.4701 41.6188 29.4701 42.0464C29.4701 42.5518 29.8762 42.9048 30.4575 42.9048C31.1001 42.9048 31.5663 42.4988 31.5663 41.9393C31.5663 41.4842 31.238 41.2279 30.8715 41.0229ZM30.08 40.2262C30.08 39.9242 30.3095 39.6995 30.6155 39.6995C30.9259 39.6995 31.1556 39.9287 31.1556 40.2397C31.1556 40.5862 30.9034 40.7619 30.647 40.9059C30.3589 40.7391 30.0801 40.5591 30.0801 40.2262H30.08ZM30.5344 42.6704C30.1606 42.6704 29.8909 42.4001 29.8909 42.0357C29.8909 41.6442 30.1924 41.4054 30.5072 41.2524C30.9351 41.4862 31.2051 41.6795 31.2051 42.04C31.2051 42.3954 30.9123 42.6704 30.5343 42.6704H30.5344Z" fill="white"/>
    <path d="M17.5583 35.8465C16.9776 36.2889 16.6908 36.2857 16.1516 36.2857C15.2056 36.2857 15.1187 36.0255 15.1187 35.228V33.9971H15.7352C16.1171 33.9971 16.421 34.012 16.9773 34.0639C17.0333 33.861 17.1209 33.5455 17.1854 33.3122C17.1854 33.3122 17.2032 33.2383 17.1161 33.2516C16.9091 33.2822 16.3769 33.3213 15.8482 33.3213H15.1274V32.437C15.1274 32.0642 15.1533 31.6478 15.1618 31.5008C15.379 31.4918 15.5613 31.4831 15.718 31.4831C16.2129 31.4831 16.7338 31.5266 17.0032 31.9166C17.0195 31.9406 17.1077 32.0662 17.1539 31.8985C17.2003 31.7313 17.3221 31.292 17.4374 30.8761C16.8033 30.8852 16.5688 30.9023 15.9869 30.9023H14.3543C14.1371 30.9023 13.9377 30.9023 13.6422 30.8852C13.7987 31.2748 13.8157 32.1166 13.8157 32.5584V35.28C13.8157 35.9389 13.764 36.468 13.6945 36.9273C14.085 36.9188 14.5542 36.9188 15.2751 36.9188C15.8479 36.9188 16.4949 36.9267 17.4695 36.9591C17.4847 36.9042 17.67 36.2338 17.7287 36.0232C17.787 35.8129 17.6622 35.7673 17.5582 35.8466L17.5583 35.8465Z" fill="white"/>
    <path d="M20.7476 32.9904C20.7131 33.3467 20.5992 33.6943 20.5128 33.9201L20.0075 35.2237C19.947 35.3885 19.8769 35.5716 19.8165 35.7622C19.8165 35.7622 19.651 35.1797 19.5725 34.9197L19.2497 33.8151C19.1281 33.4073 19.0325 32.9989 18.9976 32.5733C18.4487 32.6166 17.9965 32.6421 17.4216 32.6248C17.8045 33.0683 18.0139 33.6417 18.188 34.1635L18.7622 35.9193C18.8931 36.3011 18.9628 36.5446 19.0235 36.9271C19.1894 36.918 19.4072 36.9099 19.5809 36.9099C19.7812 36.9099 19.9818 36.9099 20.0688 36.918C20.1467 36.5706 20.2081 36.3445 20.3386 36.0319L21.1657 34.1111C21.392 33.581 21.6324 33.0659 21.9319 32.6857C21.9713 32.6355 21.9882 32.5623 21.869 32.5771C21.7363 32.5946 21.453 32.6164 21.2787 32.6164C21.0962 32.6164 20.87 32.6164 20.7477 32.6074C20.7564 32.7551 20.7477 32.8684 20.7477 32.9901L20.7476 32.9904Z" fill="white"/>
    <path d="M27.3228 33.974C27.4726 33.728 27.6751 33.5963 27.9213 33.5963C28.1242 33.5963 28.154 33.666 28.3222 33.8532C28.4013 33.942 28.4554 33.8623 28.4717 33.8036C28.5474 33.5312 28.677 33.062 28.8011 32.6161C28.6428 32.5455 28.5725 32.533 28.4229 32.533C28.0096 32.533 27.7366 32.6997 27.3407 33.2184L27.024 33.6313L27.0408 32.6298C26.6896 32.6473 26.1702 32.6648 25.8354 32.6648C25.9851 33.1306 26.0205 33.8858 26.0205 34.3077V35.362C26.0205 35.9942 25.9939 36.4156 25.9148 36.9257C26.0818 36.9169 26.3551 36.9081 26.6275 36.9081C26.8998 36.9081 27.1822 36.9169 27.323 36.9257C27.1997 36.5479 27.1469 36.2318 27.1469 35.4764V34.7643C27.1469 34.343 27.1998 34.1756 27.323 33.9739L27.3228 33.974Z" fill="white"/>
    <path d="M32.1235 32.6189C31.901 32.6722 31.6628 32.6807 31.4506 32.6807H30.8394C30.852 31.903 30.9127 31.6113 30.9208 31.5086C30.9284 31.4134 30.8826 31.3325 30.7932 31.3888C30.5509 31.5418 29.9886 31.7968 29.6792 31.8849C29.6965 32.1505 29.7148 32.3361 29.7148 32.6807C29.502 32.6807 29.2918 32.6754 29.18 32.6644C29.1406 32.8064 29.0304 33.2031 29.0231 33.2299C28.9971 33.3246 29.0552 33.3356 29.0818 33.3313C29.2019 33.3099 29.4486 33.2822 29.6792 33.2822C29.6965 33.5739 29.6965 33.8834 29.6965 34.3164V35.6602C29.6965 36.7387 30.1838 37.0663 30.9375 37.0663C31.2201 37.0663 31.4397 37.0275 31.9655 36.8884C32.0265 36.6662 32.0758 36.4875 32.1302 36.2935C32.1622 36.1764 32.0717 36.1716 32.0347 36.1907C31.804 36.3079 31.6543 36.35 31.468 36.35C30.8832 36.35 30.8126 35.8549 30.8126 35.1829V34.1841C30.8126 33.9365 30.8213 33.5826 30.8393 33.291H31.229C31.4592 33.291 31.6676 33.2931 32.0097 33.3331C32.0512 33.1838 32.151 32.8216 32.1852 32.6986C32.2048 32.6283 32.1555 32.611 32.1233 32.6189H32.1235Z" fill="white"/>
    <path d="M41.2915 34.1035C41.2915 33.1003 40.9449 32.5319 39.9308 32.5319C39.4861 32.5319 39.1303 32.6827 38.6943 33.0472L38.3386 33.3492L38.3652 32.585C37.9918 32.621 37.4491 32.621 37.0575 32.621C37.2087 33.0916 37.2444 33.7397 37.2444 34.1661V35.249C37.2444 35.8886 37.2176 36.4477 37.1375 36.9274C37.2891 36.9189 37.5647 36.9098 37.8581 36.9098C38.1341 36.9098 38.4281 36.9189 38.5606 36.9274C38.4361 36.5458 38.3831 36.0573 38.3831 35.249V34.6186C38.3831 34.0686 38.4452 33.8817 38.6677 33.6594C38.8635 33.4732 39.1212 33.3666 39.3799 33.3666C40.1086 33.3666 40.1444 33.9617 40.1444 34.4769V35.2489C40.1444 35.8885 40.1175 36.4476 40.0375 36.9273C40.1888 36.9188 40.4734 36.9097 40.7581 36.9097C41.0335 36.9097 41.3276 36.9188 41.47 36.9273C41.3453 36.5457 41.2915 36.0572 41.2915 35.2489V34.1035Z" fill="white"/>
    <path d="M25.1915 36.8186C25.2624 36.5617 25.2844 36.485 25.3684 36.1819C25.4074 36.0415 25.3284 35.9968 25.2572 36.0458C24.9489 36.2598 24.7276 36.3317 24.3542 36.3317C23.4255 36.3317 22.8696 35.7418 22.8515 34.7107C23.1384 34.6931 23.7723 34.6843 24.2237 34.6843H25.3335C25.4833 34.6843 25.4833 34.3119 25.4833 34.2252C25.4833 33.1849 24.815 32.5435 23.7461 32.5435C22.5047 32.5435 21.6452 33.4796 21.6452 34.8319C21.6452 36.167 22.496 37.077 23.8334 37.077C24.2935 37.077 24.7925 36.9485 25.1915 36.8186ZM23.6769 33.0459C24.0678 33.0459 24.3633 33.3412 24.3633 33.7484C24.3633 34.0255 24.2155 34.1382 23.8418 34.1472L22.8431 34.1733C22.8865 33.4624 23.1212 33.0459 23.6769 33.0459Z" fill="white"/>
    <path d="M34.6544 32.5328C33.1033 32.5328 32.275 33.5249 32.275 34.8909C32.275 36.2654 33.077 37.0663 34.4458 37.0663C35.884 37.0663 36.8074 36.1346 36.8074 34.673C36.8074 33.316 36.0319 32.5327 34.6544 32.5327V32.5328ZM34.5412 36.5787C33.8791 36.5787 33.5133 35.9349 33.5133 34.7169C33.5133 33.6814 33.7921 33.0284 34.5154 33.0284C35.1953 33.0284 35.5705 33.6813 35.5705 34.8908C35.5705 36.0041 35.2125 36.5786 34.5413 36.5786L34.5412 36.5787Z" fill="white"/>
    <path d="M22.3424 16.3097C22.3461 16.9082 22.3528 22.618 22.3587 23.7157C22.3589 23.731 22.3633 23.7654 22.3514 23.7637C22.1756 23.7365 21.977 23.8527 21.977 24.1551C21.977 24.6171 21.9791 24.8884 21.9799 25.3367C21.9799 25.4462 21.9824 25.7665 21.9824 25.8005C21.9824 26.1667 22.3586 26.2824 22.3586 26.2824C22.3586 26.2824 30.629 29.2376 30.9016 29.3415C31.295 29.492 31.6513 29.6157 31.9904 29.7498C32.1037 29.7944 32.1095 29.8595 32.1183 30.0637V30.4829C32.1183 30.4829 32.3289 30.4925 32.4375 30.4925C33.2366 30.4925 33.1371 30.0861 33.1608 28.8663C33.1856 27.5851 33.1878 27.1969 32.8212 27.1148C32.7924 23.7468 32.8657 17.8445 32.8494 16.1816C33.1196 16.0773 33.3557 15.8666 33.3912 15.5425C33.4255 15.2426 33.1016 14.7875 32.3646 14.4263L28.0004 5.24678C28.1597 4.9061 27.8435 4.46762 27.5057 4.46762C27.1679 4.46762 26.9004 4.90876 27.0609 5.2536L22.7287 14.4757C21.8656 14.9392 21.6771 15.5275 21.8551 15.9185C21.8551 15.9185 21.9573 16.195 22.3422 16.3098L22.3424 16.3097ZM24.3342 26.4594C24.3342 26.4957 24.3046 26.5142 24.2676 26.5014C23.8923 26.37 23.7047 26.3046 23.3301 26.1763C23.2931 26.1637 23.2631 26.1239 23.2631 26.0877V24.5254C23.2631 24.489 23.2931 24.471 23.3301 24.4848C23.7047 24.6258 23.8923 24.6956 24.2678 24.834C24.3048 24.8478 24.3348 24.8875 24.3348 24.9231C24.3345 25.5316 24.3345 25.8411 24.3342 26.4594ZM25.9017 27.0144C25.9017 27.0504 25.8714 27.0691 25.8345 27.0557C25.4595 26.9223 25.2716 26.8555 24.8968 26.7228C24.8597 26.7096 24.8297 26.6702 24.8297 26.6341C24.83 26.0174 24.83 25.7082 24.8306 25.1039C24.8306 25.0686 24.8606 25.051 24.8976 25.0643C25.2734 25.2002 25.4612 25.2674 25.837 25.3988C25.874 25.4119 25.904 25.4507 25.904 25.4859C25.9029 26.0883 25.9025 26.3993 25.9017 27.0144ZM27.4681 27.5704C27.4678 27.6059 27.4378 27.6247 27.4011 27.6116C27.0262 27.479 26.8386 27.4127 26.4637 27.2796C26.4266 27.2661 26.3966 27.2264 26.3969 27.1906C26.3978 26.5751 26.3987 26.2624 26.3999 25.658C26.3999 25.6228 26.4302 25.6046 26.4671 25.6171C26.8427 25.7459 27.0306 25.8087 27.4054 25.9325C27.4424 25.9448 27.4725 25.9839 27.4725 26.0198C27.4707 26.6341 27.4698 26.9528 27.4681 27.5704ZM29.0323 28.119C29.032 28.1552 29.002 28.1738 28.9651 28.161C28.5908 28.0305 28.4037 27.9648 28.0294 27.8331C27.9924 27.82 27.9623 27.7806 27.9626 27.7443C27.9644 27.1257 27.9655 26.8037 27.9673 26.1817C27.9676 26.1453 27.9977 26.126 28.0347 26.138C28.4096 26.2587 28.5966 26.3179 28.9709 26.4343C29.0079 26.4459 29.0379 26.4855 29.0376 26.523C29.0354 27.1656 29.0345 27.4967 29.0323 28.1189V28.119ZM30.5946 28.6613C30.5946 28.6977 30.5644 28.7168 30.5276 28.7038C30.1535 28.5745 29.9666 28.5094 29.5927 28.3798C29.5557 28.367 29.5261 28.3273 29.5261 28.2909C29.5284 27.6669 29.5293 27.3317 29.5317 26.6768C29.5317 26.6387 29.5617 26.617 29.5986 26.6283C29.9723 26.7425 30.1594 26.7989 30.5325 26.9106C30.5695 26.9217 30.5992 26.963 30.5992 27.0031C30.5975 27.6875 30.5965 28.034 30.5946 28.6613ZM25.9382 24.9679C24.0893 24.3246 23.253 23.9872 23.234 23.4497C23.2224 23.1168 23.1775 21.7341 23.2119 21.3826L23.1775 16.2266C23.1758 16.0738 23.4257 15.984 23.6527 15.9282C23.8708 15.8746 25.233 15.5726 27.5103 15.5726C29.7877 15.5726 31.3814 15.8467 31.7913 16.0117C31.881 16.0477 31.9899 16.0902 32.0547 16.1463L32.0603 16.5906C31.6729 16.5368 30.2021 16.3344 29.5736 16.2922C29.2834 16.2722 28.9059 16.2586 28.5371 16.2495C28.5356 16.2104 28.521 16.1725 28.4947 16.1433C28.4646 16.11 28.4224 16.0901 28.3778 16.0883C27.5738 16.0542 27.2907 16.0541 26.4729 16.0883C26.428 16.0901 26.386 16.11 26.356 16.1433C26.3261 16.1765 26.3103 16.2202 26.3127 16.265L26.4198 18.2319C26.3869 18.2342 26.3581 18.2359 26.333 18.2377C25.9322 18.2704 24.3274 18.4964 24.2197 18.5241C24.0731 18.562 24.0367 18.6032 24.0504 18.6572C24.0717 18.7441 24.1868 18.7145 24.3042 18.7012C25.102 18.6106 25.8198 18.5615 26.4364 18.5376L26.4533 18.8509C26.4585 18.9402 26.5319 19.0093 26.6205 19.0093H26.6276C27.308 18.9806 27.5419 18.9806 28.2226 19.0093C28.3124 19.0126 28.3916 18.9425 28.3966 18.851L28.4136 18.5396C28.6696 18.5523 28.8074 18.5656 28.8074 18.5656C29.9527 18.6657 31.4482 18.8843 32.0933 19.2745L32.0982 19.7382C31.7217 19.657 30.758 19.4566 30.4028 19.4293C29.9592 19.3957 29.7483 19.4184 29.6743 19.4293C29.5997 19.4396 29.5374 19.4832 29.5472 19.54C29.5575 19.5947 29.6207 19.6286 29.7159 19.6382C29.8074 19.6487 31.2313 19.7016 32.1044 20.2969L32.1099 20.7669C31.6071 20.6659 29.942 20.346 28.7864 20.29C27.274 20.2183 25.3922 20.4002 25.2449 20.4233C25.0975 20.4441 25.0235 20.4878 25.0337 20.5655C25.0444 20.6439 25.0695 20.6809 25.277 20.666C25.4261 20.6549 28.173 20.5557 29.6108 20.7647C30.7836 20.9358 31.5913 21.1303 32.1171 21.3819L32.1241 21.9734C31.6578 21.878 30.6373 21.68 30.1183 21.6362C29.0401 21.5454 28.3536 21.5621 28.2367 21.5621C28.1299 21.5621 28.0856 21.6111 28.0905 21.6777C28.0954 21.7592 28.1722 21.7589 28.246 21.7612C28.3876 21.7659 29.1842 21.788 30.0648 21.9244C30.6407 22.0128 31.5359 22.1537 32.1302 22.4614L32.1374 23.0608C31.8277 23.0251 31.2189 22.9578 30.9623 22.9496C30.6139 22.9395 30.3232 22.9475 30.2122 22.9717C30.1399 22.9883 30.1012 23.0371 30.1112 23.0808C30.1229 23.1253 30.1607 23.1602 30.2331 23.1602C30.3074 23.1602 30.8257 23.193 31.2169 23.2586C31.5254 23.3112 31.8933 23.4197 32.1426 23.5436C32.1426 23.5436 32.1447 24.1295 32.1455 24.3245C32.1455 24.3468 31.4808 24.1164 30.8229 24.0744C30.2276 24.0363 29.6604 24.0453 29.2124 24.0818C29.1713 24.0854 29.046 24.1072 29.049 24.2159C29.0519 24.3341 29.1877 24.3136 29.2526 24.316C29.5922 24.3287 29.8722 24.3154 30.4685 24.3744C31.3363 24.4607 32.1537 24.7388 32.1537 24.7566C32.1546 24.9956 32.1552 25.2114 32.1552 25.4972C32.1552 25.5077 31.7821 25.3909 31.2006 25.3136C30.9608 25.2818 30.5449 25.2371 30.387 25.2515C30.2804 25.2607 30.1804 25.2796 30.1762 25.3765C30.1702 25.5151 30.415 25.518 30.5012 25.5284C30.5934 25.5399 30.8493 25.5568 31.2978 25.6307C31.6629 25.6908 32.1552 25.8305 32.1552 25.8423C32.1552 26.4578 32.1537 26.9547 32.1537 26.9547C30.3115 26.4424 27.8734 25.6861 25.938 24.9677L25.9382 24.9679ZM29.9383 17.4873C30.0172 17.4873 31.4499 17.5261 32.0773 18.0514L32.0849 18.6484C31.684 18.5515 30.7534 18.3447 29.6636 18.2378C29.374 18.2089 29.0856 18.1914 28.8034 18.1796C28.8034 18.1796 28.6582 18.1752 28.4337 18.1719L28.5249 16.5037C28.949 16.5339 29.3929 16.5748 29.7798 16.6261C30.402 16.708 31.5604 16.916 32.0665 17.1252L32.072 17.555C31.8232 17.4975 31.2902 17.3822 30.9208 17.3324C30.4237 17.2668 30.0412 17.2668 29.9566 17.2784C29.871 17.2886 29.7676 17.2952 29.7696 17.3883C29.7709 17.4655 29.8527 17.4872 29.9383 17.4872V17.4873ZM28.1831 16.5162L28.069 18.6678C28.069 18.6678 27.4571 18.6573 26.9699 18.6678L26.8453 16.5267C26.8453 16.5267 27.6748 16.4851 28.1831 16.5162ZM32.1579 29.2043C32.1579 29.241 32.1276 29.2598 32.091 29.2469C31.7162 29.1158 31.5292 29.051 31.1549 28.9213C31.1183 28.9085 31.0886 28.8689 31.0886 28.8321C31.0899 28.2038 31.0904 27.8519 31.092 27.1517C31.092 27.1111 31.122 27.0867 31.1588 27.0977C31.5319 27.2086 31.7183 27.2639 32.0913 27.3754C32.128 27.3862 32.1579 27.4303 32.1579 27.4733V29.2043V29.2043ZM27.5679 6.26429C27.7139 6.57633 27.8768 6.92363 28.0486 7.29178C27.8972 7.30136 27.5985 7.32497 27.4086 7.36853C27.2967 7.39322 27.2766 7.43362 27.2766 7.47244C27.2766 7.50761 27.3213 7.56342 27.4371 7.56589C27.6765 7.57082 28.0165 7.58693 28.1907 7.5969C28.2434 7.70645 28.2937 7.81797 28.3465 7.93008C28.2212 7.96722 28.0422 8.02175 27.992 8.0415C27.9133 8.07331 27.8313 8.10205 27.8373 8.16092C27.8426 8.21318 27.928 8.21979 27.9967 8.22928C28.1459 8.24785 28.3692 8.26217 28.5004 8.25871C28.5871 8.44521 28.6506 8.58024 28.7394 8.77147C28.7945 8.8901 28.6285 8.91371 28.4871 8.9228C28.3208 8.93485 27.8947 8.93386 27.6916 8.96023C27.6118 8.97001 27.5816 9.01308 27.5816 9.05862C27.5816 9.10158 27.6416 9.13872 27.7173 9.14386C28.0083 9.15967 28.3659 9.1894 28.5565 9.22634C28.7141 9.25667 28.891 9.29647 29.0048 9.33914C29.0608 9.45649 29.1131 9.57335 29.1678 9.69C29.1989 9.75668 29.1085 9.78977 29.0421 9.7954C28.9329 9.80439 28.447 9.77406 28.1875 9.79945C28.0734 9.8116 28.0486 9.83906 28.0486 9.89714C28.0486 9.93873 28.0702 9.9649 28.1814 9.98347C28.3881 10.0171 28.8048 10.0339 28.9362 10.0559C29.0751 10.0778 29.2572 10.1258 29.402 10.189C29.4912 10.3813 29.5476 10.5016 29.6344 10.6897C29.6702 10.7671 29.6207 10.7934 29.5724 10.7967C29.4961 10.8026 28.6166 10.8134 28.5417 10.8178C28.452 10.8245 28.3514 10.85 28.3373 10.9224C28.3259 10.9791 28.4025 11.0606 28.6065 11.0739C28.8103 11.0865 29.5785 11.1315 29.9752 11.4163C30.0831 11.6473 30.1872 11.8715 30.2872 12.0847C29.9871 12.0569 28.9436 11.9685 28.4669 11.982C28.057 11.9935 27.8872 11.982 27.8718 12.0655C27.8569 12.1489 27.9426 12.1859 28.2013 12.2121C28.4476 12.2365 29.8062 12.3173 30.5263 12.5971C30.6671 12.898 30.7928 13.1678 30.9004 13.3963C30.522 13.3205 29.6439 13.1896 29.1116 13.1771C28.9065 13.1721 28.8264 13.2159 28.8264 13.3017C28.8264 13.3885 29.0111 13.3995 29.1371 13.412C29.8027 13.478 30.7416 13.7062 31.1098 13.8463C31.1486 13.9292 31.1791 13.9943 31.2038 14.0469C29.9954 13.7949 28.2722 13.6729 27.5102 13.6729C26.7567 13.6729 25.1344 13.7808 23.9214 14.0697C24.2661 13.3354 26.4071 8.74786 27.5679 6.26429ZM22.9226 14.9961C23.2196 14.8714 25.3707 14.4027 27.5102 14.3815C29.6515 14.3604 31.6962 14.825 32.2741 15.1966C32.4219 15.2893 32.5272 15.49 32.4379 15.6459C32.3494 15.8003 32.1535 15.7394 31.9482 15.6459C31.7585 15.5598 30.1719 14.9852 27.5102 14.9852C24.8486 14.9852 23.397 15.5053 23.2036 15.5522C23.012 15.5995 22.7449 15.7529 22.5971 15.4746C22.4995 15.2928 22.6268 15.1189 22.9225 14.996L22.9226 14.9961Z" fill="white"/>
    <path d="M41.7327 9.47437C41.9323 9.39337 42.1447 9.17221 42.2926 8.86422C42.4406 8.55653 42.4881 8.23678 42.4385 8.00683C42.2392 8.08812 42.0266 8.30929 41.8783 8.61718C41.7301 8.92487 41.6828 9.24422 41.7326 9.47437H41.7327Z" fill="white"/>
    <path d="M40.9232 8.5021C40.8897 8.71151 40.948 8.99471 41.0953 9.2619C41.2427 9.5284 41.4439 9.71391 41.6267 9.77475C41.6603 9.56594 41.6023 9.28215 41.4545 9.01535C41.3071 8.74835 41.1055 8.56344 40.9232 8.5021Z" fill="white"/>
    <path d="M40.9286 11.4018C41.0939 11.2535 41.2316 10.968 41.2832 10.6235C41.3346 10.2792 41.287 9.95907 41.1741 9.75925C41.0085 9.90761 40.8712 10.1934 40.8196 10.5373C40.7682 10.882 40.8155 11.2019 40.9286 11.4018Z" fill="white"/>
    <path d="M42.1531 10.1076C42.3532 9.83906 42.4578 9.53611 42.4502 9.30023C42.2403 9.33519 41.9919 9.5045 41.7916 9.77308C41.5909 10.0417 41.4869 10.3441 41.4944 10.5808C41.7045 10.5456 41.9523 10.376 42.1531 10.1076Z" fill="white"/>
    <path d="M41.5859 8.82688C41.7526 8.68 41.8916 8.39582 41.945 8.05148C41.9988 7.70753 41.9539 7.38739 41.8414 7.18658C41.6749 7.33336 41.5355 7.61834 41.4822 7.96218C41.4283 8.30642 41.4739 8.62627 41.5859 8.82688Z" fill="white"/>
    <path d="M41.3322 7.83614C41.4639 7.65083 41.5416 7.3383 41.5232 6.99011C41.505 6.64093 41.3953 6.34124 41.2452 6.17411C41.1132 6.35961 41.0357 6.67185 41.0542 7.02063C41.0721 7.36872 41.1815 7.66911 41.3322 7.83614Z" fill="white"/>
    <path d="M40.7021 8.13514C40.9211 8.33211 41.1661 8.43227 41.3563 8.42199C41.326 8.21258 41.1858 7.96682 40.9668 7.76957C40.7484 7.5727 40.5029 7.47254 40.3126 7.48262C40.3434 7.69202 40.483 7.93818 40.7021 8.13514Z" fill="white"/>
    <path d="M40.9089 7.48202C40.9348 7.24743 40.8553 6.93558 40.677 6.64873C40.4983 6.36169 40.2648 6.16848 40.0583 6.11306C40.032 6.34766 40.1118 6.6592 40.2905 6.94635C40.4687 7.2336 40.7027 7.42651 40.9089 7.48202Z" fill="white"/>
    <path d="M40.6121 12.0261C40.7551 11.7158 40.7975 11.395 40.7444 11.1659C40.5462 11.2509 40.3373 11.4766 40.1945 11.7873C40.0511 12.098 40.0085 12.4184 40.0622 12.647C40.26 12.5624 40.469 12.3371 40.6121 12.0261Z" fill="white"/>
    <path d="M40.1058 13.5393C40.4171 13.579 40.7015 13.51 40.8752 13.374C40.7338 13.1973 40.4708 13.0591 40.1594 13.019C39.8481 12.9793 39.563 13.0478 39.3897 13.184C39.5311 13.3611 39.7944 13.499 40.1058 13.5393Z" fill="white"/>
    <path d="M39.3767 13.0481C39.6381 12.8558 39.8159 12.5987 39.8696 12.3703C39.6595 12.3368 39.3782 12.4196 39.1169 12.6123C38.8559 12.8056 38.6779 13.0623 38.6243 13.2908C38.8343 13.3244 39.1158 13.2418 39.3767 13.0481Z" fill="white"/>
    <path d="M37.2913 13.4213C36.9851 13.4978 36.737 13.6672 36.6135 13.8593C36.7987 13.9741 37.0882 14.0087 37.3943 13.9316C37.6872 13.858 37.9271 13.6995 38.0557 13.5171C38.0935 13.5512 38.1308 13.5863 38.1672 13.6222C37.8401 13.8169 37.5738 14.0742 37.316 14.4123C37.4175 14.5725 37.4677 14.6529 37.5689 14.8128C37.7652 14.3678 37.9733 14.0049 38.2477 13.7037C38.5351 14.0073 38.7735 14.3758 38.9689 14.8183C39.07 14.6583 39.1207 14.5779 39.2218 14.4177C38.9651 14.0807 38.6689 13.8173 38.3278 13.6195C38.3638 13.5832 38.4009 13.5477 38.4394 13.5132C38.5666 13.6974 38.8081 13.8574 39.1032 13.9315C39.4092 14.0085 39.6987 13.9739 39.8839 13.8592C39.7607 13.6671 39.5123 13.4978 39.2064 13.4212C38.9457 13.3558 38.697 13.3718 38.514 13.4488L38.5149 13.448C38.5128 13.4489 38.5108 13.4498 38.5087 13.4508C38.5038 13.4528 38.4988 13.4549 38.4941 13.457C38.4085 13.4934 38.327 13.5327 38.2489 13.5752C38.2489 13.5752 38.1449 13.5136 37.9716 13.4442C37.7894 13.3715 37.5466 13.3571 37.2914 13.4211L37.2913 13.4213Z" fill="white"/>
    <path d="M37.1383 13.0481C37.3996 13.2417 37.6811 13.3244 37.8908 13.2908C37.8375 13.0623 37.6592 12.8057 37.3985 12.6123C37.1371 12.4196 36.8552 12.3368 36.6455 12.3703C36.6991 12.5987 36.877 12.8558 37.1383 13.0481Z" fill="white"/>
    <path d="M35.6397 13.374C35.8135 13.51 36.0979 13.579 36.4094 13.5393C36.7209 13.499 36.9839 13.3611 37.125 13.184C36.9516 13.0478 36.6672 12.9793 36.356 13.019C36.0441 13.0592 35.7811 13.1974 35.6397 13.374Z" fill="white"/>
    <path d="M35.4201 9.2619C35.567 8.99471 35.6253 8.71151 35.5921 8.5021C35.4095 8.56344 35.2086 8.74845 35.0605 9.01545C34.913 9.28215 34.8546 9.56604 34.888 9.77485C35.0711 9.71401 35.2723 9.5283 35.4201 9.2619Z" fill="white"/>
    <path d="M34.0651 9.30013C34.0576 9.53601 34.1618 9.83896 34.3625 10.1075C34.5627 10.3758 34.8106 10.5455 35.0209 10.5807C35.0281 10.344 34.9239 10.0417 34.7235 9.77298C34.5234 9.5044 34.2751 9.33509 34.0651 9.30013Z" fill="white"/>
    <path d="M35.5863 11.4018C35.6999 11.2019 35.7467 10.882 35.6955 10.5373C35.644 10.1934 35.507 9.90761 35.3411 9.75925C35.2276 9.95907 35.1804 10.2792 35.232 10.6235C35.2833 10.968 35.4209 11.2535 35.5863 11.4018Z" fill="white"/>
    <path d="M34.488 11.3899C34.5542 11.6141 34.7461 11.8582 35.0175 12.033C35.2889 12.2074 35.574 12.2709 35.7823 12.2227C35.7155 11.9983 35.5242 11.7546 35.2523 11.5799C34.981 11.405 34.6957 11.3417 34.488 11.3899Z" fill="white"/>
    <path d="M34.8491 12.4997C34.9802 12.6858 35.235 12.8426 35.5432 12.9048C35.8519 12.9664 36.1396 12.9186 36.3206 12.7947C36.1899 12.6088 35.9347 12.4516 35.6259 12.3897C35.318 12.3279 35.0303 12.3761 34.8491 12.4997Z" fill="white"/>
    <path d="M35.7707 11.1659C35.7169 11.395 35.7601 11.7158 35.903 12.0261C36.0463 12.3371 36.2551 12.5625 36.453 12.6471C36.5065 12.4185 36.4639 12.0981 36.3213 11.7874C36.178 11.4766 35.9692 11.2509 35.7707 11.1659Z" fill="white"/>
    <path d="M36.2246 6.94635C36.4028 6.6592 36.4829 6.34766 36.4567 6.11306C36.2505 6.16848 36.0169 6.36169 35.8383 6.64873C35.6596 6.93558 35.5799 7.24743 35.6064 7.48202C35.8122 7.42651 36.0462 7.2336 36.2246 6.94635Z" fill="white"/>
    <path d="M35.8132 8.13514C36.032 7.93818 36.1718 7.69202 36.2026 7.48262C36.0124 7.47254 35.7668 7.5727 35.5479 7.76957C35.3291 7.96682 35.1895 8.21258 35.1584 8.42199C35.3488 8.43227 35.5938 8.33211 35.8132 8.13514Z" fill="white"/>
    <path d="M35.4612 7.02053C35.4794 6.67165 35.4022 6.35951 35.2705 6.17401C35.1197 6.34114 35.0103 6.64093 34.9922 6.99001C34.9737 7.3382 35.0509 7.65074 35.1829 7.83604C35.3335 7.66901 35.443 7.36863 35.4612 7.02053Z" fill="white"/>
    <path d="M34.9291 8.82688C35.0415 8.62627 35.0864 8.30652 35.0332 7.96228C34.9795 7.61834 34.84 7.33346 34.6739 7.18668C34.5615 7.38759 34.5163 7.70763 34.5699 8.05158C34.6234 8.39582 34.7631 8.68 34.9291 8.82688Z" fill="white"/>
    <path d="M34.7823 9.47437C34.8324 9.24422 34.7848 8.92497 34.6367 8.61718C34.4886 8.30929 34.276 8.08802 34.0768 8.00683C34.0266 8.23678 34.0745 8.55653 34.2225 8.86422C34.3702 9.17221 34.583 9.39337 34.7823 9.47437Z" fill="white"/>
    <path d="M40.8888 12.3898C40.5804 12.4517 40.3258 12.6088 40.1945 12.7948C40.3755 12.9187 40.6631 12.9665 40.9719 12.9049C41.2807 12.8427 41.5352 12.6859 41.6661 12.4998C41.4847 12.3762 41.1973 12.3279 40.8888 12.3898Z" fill="white"/>
    <path d="M41.2626 11.5799C40.991 11.7546 40.7994 11.9983 40.733 12.2227C40.9411 12.2709 41.226 12.2074 41.4977 12.033C41.7695 11.8581 41.9608 11.6141 42.0269 11.3899C41.8192 11.3417 41.534 11.4051 41.2626 11.5799Z" fill="white"/>
    <path d="M41.7994 10.5782C41.528 10.7528 41.3361 10.9964 41.2696 11.2211C41.4775 11.2692 41.7628 11.2057 42.0342 11.031C42.3055 10.8564 42.4974 10.6126 42.5638 10.3882C42.356 10.3402 42.0705 10.4037 41.7994 10.5782Z" fill="white"/>
    <path d="M34.4809 11.031C34.7523 11.2057 35.0377 11.2693 35.2454 11.2211C35.1792 10.9964 34.9874 10.7528 34.7159 10.5782C34.4447 10.4036 34.1592 10.3401 33.9512 10.3882C34.0176 10.6126 34.2093 10.8565 34.4809 11.031Z" fill="white"/>
    </svg>