<svg xmlns="http://www.w3.org/2000/svg" width="101" height="43" viewBox="0 0 101 43" fill="none">
    <path d="M11.3534 8.78813C11.3534 11.2159 9.52401 12.6519 6.42965 12.6519H0.856171V0H6.83939C9.13056 0 10.4638 0.991774 10.4638 2.6677C10.4638 4.24026 8.95889 5.18066 6.41211 5.18066V5.21449H6.70281C9.62676 5.21449 11.3534 6.5308 11.3534 8.78813ZM5.84762 2.27425H3.83024V5.18128H5.84762C6.80556 5.18128 7.38697 4.63433 7.38697 3.72777C7.38697 2.8212 6.80556 2.27425 5.84762 2.27425ZM8.27599 8.78813C8.27599 7.77944 7.6263 7.19803 6.56686 7.19803H3.83087V10.3776H6.56686C7.6263 10.3776 8.27599 9.77991 8.27599 8.78813Z" fill="white"/>
    <path d="M15.7722 0H12.7976V12.6519H15.7722V0Z" fill="white"/>
    <path d="M39.7509 0H36.7762V12.6519H39.7509V0Z" fill="white"/>
    <path d="M51.3402 10.3776V12.6519H41.8516V5.04408H45.7147V5.00962C43.2193 5.00962 41.7144 4.10368 41.7144 2.54804C41.7144 0.9924 43.151 0 45.5618 0H51.1522V2.27425H46.6043C45.4591 2.27425 44.7918 2.78737 44.7918 3.67639C44.7918 4.56542 45.4591 5.04408 46.6043 5.04408H50.5533V7.31833H44.8263V10.3782L51.3402 10.3776Z" fill="white"/>
    <path d="M61.4089 8.73676V0H64.3836V8.58263C64.3836 11.2497 62.7421 12.8229 59.9898 12.8229C57.4769 12.8229 55.9037 11.0448 55.7496 8.07014H58.5018C58.6221 9.59195 59.2029 10.4973 60.0926 10.4973C60.9302 10.4973 61.4089 9.83065 61.4089 8.73676Z" fill="white"/>
    <path d="M75.8808 10.3776V12.6519H66.3916V5.04408H70.2553V5.00962C67.7599 5.00962 66.255 4.10368 66.255 2.54804C66.255 0.9924 67.6916 0 70.1024 0H75.6928V2.27425H71.1456C70.0003 2.27425 69.3337 2.78737 69.3337 3.67639C69.3337 4.56542 70.0003 5.04408 71.1456 5.04408H75.0951V7.31833H69.3675V10.3782H75.8814L75.8808 10.3776Z" fill="white"/>
    <path d="M85.2597 9.71161H80.3359L79.5665 12.6525H76.6088L80.2839 0H85.4984L89.1397 12.6519H86.0115L85.2591 9.71099L85.2597 9.71161ZM84.6783 7.45428L82.815 0.239329H82.7806L80.9173 7.45428H84.6783Z" fill="white"/>
    <path d="M100.856 0V12.6519H96.052L92.8888 0.239329H92.8549L92.9915 12.6519H90.1703V0H94.992L98.1553 12.4119H98.1891L98.0519 0H100.856Z" fill="white"/>
    <path d="M18.9894 27.3806L15.8781 21.2082L13.4673 24.166V27.38H10.6123V14.7281H13.4673V20.2509H13.5018L18.3234 14.7281H21.6571L16.0667 21.1393C17.5371 21.1393 19.4518 21.8748 20.3408 23.7042L22.3243 27.3793H18.99L18.9894 27.3806Z" fill="white"/>
    <path d="M26.1818 14.7294H23.2071V27.3812H26.1818V14.7294Z" fill="white"/>
    <path d="M38.9784 14.7288V27.3806H34.1743L31.011 14.9681H30.9772L31.1137 27.3806H28.2932V14.7288H33.1136L36.2775 27.1413H36.3113L36.1741 14.7288H38.9784Z" fill="white"/>
    <path d="M52.3407 20.6105V27.3812H49.554V22.9186H49.5195C49.5195 25.8256 47.9294 27.5523 45.2454 27.5523C42.339 27.5523 40.561 25.1414 40.561 21.0553C40.561 16.9692 42.8352 14.559 46.682 14.559C49.8447 14.559 51.9134 16.4053 52.2386 19.4997H49.4174C49.178 17.8751 48.1524 16.884 46.682 16.884C44.7668 16.884 43.6384 18.4402 43.6384 21.0559C43.6384 23.6716 44.7498 25.2279 46.6306 25.2279C48.289 25.2279 49.3322 24.2192 49.5026 22.5264H46.5448V20.6117H52.3407V20.6105Z" fill="white"/>
    <path d="M63.4006 27.5516C59.5707 27.5516 57.314 25.1414 57.314 21.0547C57.314 16.9679 59.5707 14.5583 63.4006 14.5583C66.5977 14.5583 68.7003 16.473 69.0593 19.687H66.2381C65.9643 17.9434 64.9048 16.8833 63.4 16.8833C61.5022 16.8833 60.3739 18.439 60.3739 21.0547C60.3739 23.6704 61.5022 25.2266 63.4 25.2266C64.9387 25.2266 65.9643 24.1672 66.2381 22.3885H69.0593C68.7003 25.6195 66.5977 27.5516 63.4006 27.5516Z" fill="white"/>
    <path d="M77.9276 14.7288H80.7488V22.8327C80.7488 25.8074 78.8166 27.5516 75.5343 27.5516C72.252 27.5516 70.3536 25.808 70.3536 22.8327V14.7288H73.3114V22.9693C73.3114 24.3884 74.1666 25.226 75.6195 25.226C77.0724 25.226 77.9276 24.3884 77.9276 22.9693V14.7288Z" fill="white"/>
    <path d="M26.2087 10.3024V12.6431H17.8717V0H20.8445V7.60276C20.8445 9.20852 19.7513 10.199 17.9569 10.2673V10.3018L26.2087 10.3024Z" fill="white"/>
    <path d="M35.6491 10.3024V12.6431H27.312V0H30.2849V7.60276C30.2849 9.20852 29.1916 10.199 27.3979 10.2673V10.3018H35.6497L35.6491 10.3024Z" fill="white"/>
    <path d="M92.6451 18.9214C92.6451 21.3817 91.1245 22.8509 88.5282 22.8509C86.9732 22.8509 85.9482 22.0308 85.8117 20.6637H85.7772V27.3612H82.8044V14.7187H87.725C90.8175 14.7187 92.6451 16.2907 92.6451 18.9214ZM89.587 18.7848C89.587 17.6577 88.938 16.9911 87.861 16.9911H85.7766V20.5792H87.861C88.9373 20.5792 89.587 19.9119 89.587 18.7848Z" fill="white"/>
    <path d="M18.72 39.7392C18.72 40.429 18.2614 40.8382 17.4745 40.8382H15.9395V36.851H17.3348C18.0139 36.851 18.4067 37.2012 18.4067 37.7939C18.4067 38.3277 18.0515 38.6397 17.4588 38.6397V38.6504H17.5183C18.2783 38.6504 18.72 39.0551 18.72 39.7392ZM17.2333 37.1417H16.2791V38.6397H17.2333C17.7502 38.6397 18.0572 38.3653 18.0572 37.9017C18.0572 37.4381 17.7502 37.1417 17.2333 37.1417ZM18.3754 39.7392C18.3754 39.2274 18.0465 38.931 17.497 38.931H16.2791V40.5474H17.497C18.0465 40.5474 18.3754 40.2455 18.3754 39.7392Z" fill="white"/>
    <path d="M22.761 36.851L20.6866 40.8382H20.3038L21.0475 39.389H20.713L19.3935 36.851H19.7913L21.0851 39.3508H21.0957L22.3782 36.851H22.761Z" fill="white"/>
    <path d="M41.8259 37.4838V37.3516C41.8259 36.7432 41.2877 36.2777 40.5735 36.269C39.895 36.269 39.4032 36.6963 39.3217 37.3566C39.2234 38.1629 39.2234 39.5256 39.3217 40.3319C39.3963 40.8732 39.8123 41.4196 40.5741 41.4196C41.1518 41.4196 41.8259 41.1357 41.8259 40.3369V39.3646H40.6217V38.3352H42.8553V40.3369C42.8553 41.5411 41.8748 42.4489 40.5741 42.4489C39.3474 42.4489 38.4521 41.6219 38.2936 40.3419C38.1946 39.5388 38.1946 38.1391 38.2936 37.346C38.3613 36.779 38.6056 36.2577 38.9809 35.8799C39.3975 35.4608 39.9482 35.2396 40.5741 35.2396C41.7075 35.2396 42.8553 35.9651 42.8553 37.3516V37.4838H41.8259ZM79.8278 37.4838V37.3516C79.8278 36.7432 79.2896 36.2777 78.5754 36.269C77.8969 36.269 77.4051 36.6963 77.3236 37.3566C77.2253 38.1629 77.2253 39.5256 77.3236 40.3319C77.3982 40.8732 77.8148 41.4196 78.576 41.4196C79.1537 41.4196 79.8278 41.1357 79.8278 40.3369V39.3646H78.6236V38.3352H80.8572V40.3369C80.8572 41.5411 79.8767 42.4489 78.576 42.4489C77.3493 42.4489 76.454 41.6219 76.2955 40.3419C76.1965 39.5388 76.1965 38.1391 76.2955 37.346C76.3632 36.779 76.6075 36.2577 76.9828 35.8799C77.3994 35.4608 77.9501 35.2396 78.576 35.2396C79.7094 35.2396 80.8572 35.9651 80.8572 37.3516V37.4838H79.8278ZM79.9118 37.3998H80.7738V37.3936H79.9118V37.3998ZM80.8572 37.4838L79.8284 37.4832V37.3096H80.8572V37.4838ZM80.8152 37.4418H79.8698V37.3516H80.8152V37.4418ZM31.692 41.6044H28.3934L31.2077 38.7894L28.3934 35.9745H31.692C31.8142 35.9745 31.9338 36.0121 32.0335 36.0823L35.8997 38.7894L32.0335 41.4966C31.9332 41.5668 31.8142 41.6044 31.692 41.6044ZM85.7722 41.3412V42.37H82.0557V35.3192H85.7521V36.3479H83.0844V38.3277L85.6425 38.3308V39.3602H85.6005L83.0844 39.3564V41.34H85.7716L85.7722 41.3412ZM74.1416 40.2329C74.0776 40.7774 73.6479 41.3406 73.0383 41.3406H71.9356V36.3479H73.0383C73.6479 36.3479 74.0776 36.9112 74.1416 37.4562C74.2405 38.2475 74.2405 39.441 74.1416 40.2329ZM75.1703 37.4462C75.0193 36.1938 74.1428 35.3192 73.0389 35.3192H70.9069V42.37H73.0389C74.1528 42.37 75.0293 41.4954 75.1703 40.243C75.2649 39.4028 75.2649 38.2005 75.1703 37.4462ZM69.4508 42.37H68.4221V35.3192H69.4508V42.37ZM66.1547 37.5803C66.0896 38.1354 65.6097 38.5539 65.0383 38.5539H64.0565V36.3479H65.0596C65.3716 36.3479 65.6717 36.4839 65.8822 36.7207C66.0915 36.9563 66.1911 37.2695 66.1547 37.5803ZM67.1572 42.011L65.8985 39.4141C65.9511 39.3809 66.0582 39.3132 66.1353 39.2687C66.7863 38.8847 67.191 38.188 67.191 37.4512C67.191 36.2759 66.2349 35.3192 65.059 35.3192H63.0265V42.37H64.0553V39.5832H64.8265L66.1478 42.37H67.3213C67.3213 42.37 67.2267 42.1613 67.1572 42.011ZM60.8175 40.2975C60.8175 40.8632 60.3125 41.3406 59.7148 41.3406H58.6416V39.1647H59.7148C60.3432 39.1647 60.8175 39.6515 60.8175 40.2975ZM58.6416 38.1855V36.3485H59.7148C60.179 36.3485 60.6777 36.6192 60.6777 37.2125C60.6777 37.8058 60.3 38.1855 59.7148 38.1855H58.6416ZM61.1232 38.7412C61.1 38.7243 61.063 38.6898 61.0361 38.6648C61.0649 38.6403 61.1038 38.6065 61.1257 38.5871C61.5549 38.2143 61.7071 37.6135 61.7071 37.2119C61.7071 36.1324 60.8507 35.3185 59.7148 35.3185H57.6322V42.3694H59.7148C60.9102 42.3694 61.8468 41.459 61.8468 40.2968C61.8468 39.7236 61.5499 39.0839 61.1238 38.7406M50.4806 42.37H49.4518V35.3192H50.4806V42.37ZM55.2183 35.3192V40.4334C55.056 40.0224 53.179 35.3192 53.179 35.3192H51.9435V42.37H52.9328V37.2607L54.9727 42.37H56.2076V35.3192H55.2183ZM78.5767 35.3229C77.2259 35.3229 76.4998 36.3442 76.3788 37.3566C76.2805 38.1441 76.2805 39.535 76.3788 40.3319C76.5323 41.5674 77.3944 42.3656 78.5767 42.3656C79.8291 42.3656 80.7745 41.4935 80.7745 40.3369V38.4185H78.7082V39.2806H79.9124V40.3369C79.9124 41.1978 79.1931 41.5035 78.5767 41.5035C77.7647 41.5035 77.3211 40.9208 77.2415 40.3426C77.1407 39.5162 77.1407 38.1717 77.2415 37.346C77.3274 36.6512 77.8637 36.1844 78.5767 36.1844C79.3222 36.1938 79.8879 36.6743 79.9118 37.309H80.7738C80.7513 36.0046 79.6574 35.3229 78.5767 35.3229ZM78.5767 42.4495C77.3493 42.4495 76.4546 41.6225 76.2961 40.3426C76.1965 39.5394 76.1965 38.1397 76.2961 37.3466C76.3638 36.779 76.6069 36.2583 76.9828 35.8799C77.3994 35.4608 77.9501 35.2396 78.576 35.2396C79.7094 35.2396 80.8572 35.9651 80.8572 37.3516L80.8578 37.3936H79.8284L79.8278 37.3516C79.8278 36.7432 79.2903 36.2777 78.576 36.2683C77.8975 36.2683 77.4057 36.6956 77.3236 37.3566C77.2253 38.1629 77.2253 39.5256 77.3236 40.3319C77.3982 40.8732 77.8154 41.4202 78.5767 41.4202C79.1543 41.4202 79.8291 41.1364 79.8291 40.3369V39.3646H78.6249V38.3358H80.8584V40.3376C80.8584 41.5417 79.8773 42.4495 78.5767 42.4495ZM79.8704 39.3232H78.6662V38.3778H80.8165V40.3376C80.8165 41.4922 79.8905 42.4076 78.5767 42.4076C77.3825 42.4076 76.4966 41.6213 76.3375 40.3376C76.2379 39.5312 76.2379 38.1479 76.3375 37.3516C76.4672 36.2665 77.2629 35.2816 78.5767 35.2816C79.7714 35.2816 80.8165 36.0578 80.8165 37.3516H79.871C79.871 36.7545 79.3636 36.237 78.5773 36.227C77.9307 36.227 77.3731 36.6248 77.2835 37.3516C77.1839 38.1679 77.1839 39.5212 77.2835 40.3376C77.3631 40.9146 77.801 41.4622 78.5773 41.4622C79.2445 41.4622 79.871 41.1138 79.871 40.3376L79.8704 39.3232ZM46.6056 39.5494H45.2604L45.9308 36.6938L46.6056 39.5494ZM46.459 35.3192H45.4014L43.4348 42.37H44.4692L44.9892 40.5581H46.8756L47.3956 42.37H48.4275L46.459 35.3192Z" fill="white"/>
    </svg>