<svg xmlns="http://www.w3.org/2000/svg" width="78" height="26" viewBox="0 0 78 26" fill="none">
    <g clip-path="url(#clip0_13583_65698)">
    <path fill-rule="evenodd" clip-rule="evenodd" d="M77.2558 0.679326C77.2558 0.304552 76.9981 4.70877e-05 76.5765 4.70877e-05C76.1549 4.70877e-05 75.8972 0.304552 75.8972 0.679326C75.8972 1.0541 76.1549 1.35861 76.5765 1.35861C76.9981 1.35861 77.2558 1.0541 77.2558 0.679326ZM77.0918 0.679326C77.0918 0.983831 76.9278 1.21807 76.5765 1.21807C76.2251 1.21807 76.0377 0.983831 76.0377 0.679326C76.0377 0.374822 76.2486 0.140588 76.5765 0.140588C76.9044 0.140588 77.0918 0.374822 77.0918 0.679326ZM76.4359 0.77302H76.5296L76.6936 0.983831H76.8341L76.6702 0.749597C76.7639 0.726173 76.7639 0.609056 76.7639 0.609056V0.515362C76.7639 0.421669 76.717 0.351398 76.5765 0.351398H76.3188V0.983831H76.4359V0.77302ZM76.4359 -0.327881H76.5765V-0.304457C76.6468 -0.304457 76.6702 -0.234187 76.6702 -0.234187V-0.163917C76.6702 -0.11707 76.5765 -0.0936466 76.5765 -0.0936466H76.4359V-0.327881ZM6.56417 2.8491e-05L0.591194 21.5964C0.520923 21.8541 0.474077 22.1352 0.450653 22.3694C0.450653 22.6505 0.450653 22.9081 0.520923 23.1658C0.755158 24.0325 1.31732 24.7117 2.23083 25.2505C3.12092 25.7424 4.26867 26.0235 5.60381 26.0235H15.5822C18.0182 26.0235 19.7281 25.7424 20.7119 25.1802C21.6957 24.6415 22.3984 23.6577 22.7966 22.2289L28.9335 2.8491e-05H20.0795L14.7155 19.3244C14.6218 19.6991 14.4344 19.9334 14.1768 20.0739C13.9191 20.2144 13.4975 20.2847 12.8651 20.2847H11.3425C10.9912 20.2847 10.7101 20.2144 10.4759 20.0973C10.2416 19.9568 10.1011 19.7928 10.0308 19.5586V19.3478C10.0308 19.2775 10.0308 19.2307 10.0543 19.1604L15.4182 2.8491e-05H6.56417ZM50.6702 5.71534H31.5567L33.1495 2.8491e-05H52.263L50.6702 5.71534ZM37.7172 15.3892H48.0001L49.5929 9.67391H30.4559L25.9352 26H34.7893L37.7172 15.3892ZM58.9621 19.5586C59.0324 19.7928 59.1729 19.9568 59.4072 20.0973V20.1208C59.6414 20.2379 59.9225 20.3081 60.2738 20.3081H70.5099L68.9171 26.0235H54.9099C53.5747 26.0235 52.427 25.7424 51.5369 25.2505C50.6234 24.7117 50.0612 24.0325 49.827 23.1658C49.7567 22.9081 49.7567 22.6505 49.7567 22.3694C49.7801 22.1352 49.827 21.8541 49.8973 21.5964L54.8396 3.79462C55.2378 2.36579 55.9405 1.38201 56.9243 0.843272C57.9081 0.28111 59.618 2.8491e-05 62.054 2.8491e-05H75.4522L73.8594 5.71534H64.3027C63.6702 5.71534 63.2486 5.78561 62.9909 5.92615C62.7333 6.0667 62.5459 6.30093 62.4522 6.6757L58.9855 19.1604C58.9621 19.2307 58.9621 19.2775 58.9621 19.3478V19.5586Z" fill="white"/>
    </g>
    <defs>
    <clipPath id="clip0_13583_65698">
    <rect width="76.8054" height="26" fill="white" transform="translate(0.450653)"/>
    </clipPath>
    </defs>
    </svg>