<svg xmlns="http://www.w3.org/2000/svg" width="70" height="34" viewBox="0 0 70 34" fill="none">
    <path d="M52.7634 3.7334C43.8282 2.08018 35.8585 3.97811 29.0174 10.1168C29.1309 10.1724 29.2327 10.1045 29.3357 10.0864C29.441 10.0682 29.5457 10.046 29.6493 10.0184C33.5016 9.00567 37.4265 8.74867 41.3877 8.92079C47.8549 9.20179 54.1009 10.4833 60.0362 13.1276C62.9834 14.4407 65.7463 16.0582 68.2055 18.1651C68.5525 18.4625 68.8836 18.7763 69.2382 19.1668C68.8146 19.1328 68.4454 19.1076 68.0768 19.0737C66.5824 18.9355 65.0875 18.8167 63.5855 18.778C59.6676 18.6768 56.305 19.9746 53.4526 22.6617C51.826 24.1937 50.3036 25.8282 48.6951 27.3767C47.1545 28.8601 45.5437 30.2534 43.7194 31.3838C41.3784 32.8339 38.8355 33.6547 36.0954 33.9199C33.2489 34.195 30.524 33.7624 27.9174 32.6097C26.4435 31.9581 25.1276 31.0624 24.0481 29.8471C23.9422 29.7283 23.8216 29.6176 23.7362 29.4239C24.4313 29.675 25.0896 29.9063 25.77 30.059C31.0448 31.2457 35.893 30.3465 40.2555 27.0845C41.7043 26.0009 42.9903 24.7353 44.2723 23.4667C45.7134 22.04 47.1288 20.587 48.6828 19.2786C49.9472 18.2143 51.3088 17.2999 52.7745 16.5377C52.8681 16.4891 52.9588 16.4352 53.1074 16.3527C52.5796 16.2367 52.0999 16.2104 51.6242 16.1817C48.5582 15.9956 45.4899 15.9036 42.4175 15.9797C42.1542 15.9862 42.046 15.9885 42.046 15.9885C42.0272 17.3812 41.7669 19.0128 40.9506 20.162C39.3849 22.3655 37.2317 23.4304 34.5507 23.0955C31.7961 22.7519 29.9097 21.1876 28.9589 18.5491C28.877 18.3208 28.7342 17.897 28.7342 17.897C28.7342 17.897 28.4925 17.9661 28.0502 18.1042C27.0093 18.4297 26.0105 18.8582 25.0205 19.3125C24.7514 19.4361 24.5799 19.5455 24.5799 19.5455C24.838 20.7011 25.5442 22.0154 26.3054 22.9134C27.894 24.7879 29.9424 25.8926 32.3028 26.4675C32.5766 26.5342 32.8516 26.5928 33.1734 26.6654C32.6228 26.8978 32.0816 26.9768 31.5404 27.0371C29.5902 27.2555 27.6716 27.1109 25.797 26.502C23.2137 25.6631 21.1056 24.1715 19.5533 21.9293C19.4895 21.8374 19.3544 21.632 19.3544 21.632C19.3544 21.632 19.1461 21.694 18.9851 21.7403C14.7741 22.9609 10.6006 22.8526 6.48727 21.3152C4.58158 20.6028 2.89413 19.5444 1.58349 17.952C1.312 17.6224 1.07035 17.2712 0.856201 16.8473C1.39918 16.9474 1.90296 17.0435 2.4079 17.1336C3.93562 17.407 5.46918 17.5885 7.02732 17.5352C9.40695 17.4544 11.5578 16.6858 13.553 15.4218C15.2399 14.3529 16.7372 13.0462 18.214 11.7144C20.1536 9.96459 22.0388 8.15389 24.0668 6.50301C26.3704 4.62734 28.8144 2.97646 31.5591 1.80445C33.4601 0.993063 35.4348 0.469114 37.4892 0.243729C38.7869 0.101472 40.0859 -0.0530779 41.3947 0.0177576C44.9253 0.208018 48.3171 0.911105 51.3954 2.75634C51.8752 3.04378 52.3403 3.35288 52.7669 3.7334H52.7634ZM38.4107 16.1571C36.2107 16.2877 34.0277 16.5429 31.8751 17.0312C31.6387 17.0844 31.5872 17.1102 31.5872 17.1102C32.0921 18.9051 33.8761 20.3739 35.6689 20.1977C37.5646 20.0115 38.9812 18.5813 39.1187 16.6764C39.1707 15.9575 39.1479 16.1097 39.1479 16.1097C39.0894 16.1121 38.4686 16.1524 38.4107 16.1571Z" fill="white"/>
    </svg>