<svg xmlns="http://www.w3.org/2000/svg" width="49" height="56" viewBox="0 0 49 56" fill="none">
    <path fill-rule="evenodd" clip-rule="evenodd" d="M25.4728 10.2303C13.0377 9.74133 2.51055 19.3672 2.03117 31.6489C1.55179 43.9306 11.2928 54.3427 23.7278 54.8316C36.1629 55.311 46.69 45.6947 47.179 33.413C47.6584 21.1314 37.9078 10.7193 25.4728 10.2303ZM25.5111 9.09896C38.5886 9.6071 48.8281 20.5465 48.3295 33.4705C47.8118 46.385 36.7477 56.4903 23.6703 55.9821C10.5929 55.474 0.353349 44.5346 0.851903 31.6106C1.36004 18.6865 12.4241 8.58123 25.5111 9.09896ZM24.1401 51.4952L24.8783 51.802C24.8783 51.802 24.8496 51.8116 24.8592 51.8211C24.8496 51.8307 24.8496 51.8595 24.8208 51.8691C24.7825 51.9745 24.7825 52.08 24.8112 52.1184C24.84 52.1759 24.9359 52.243 25.0989 52.3101L26.0384 52.684C26.1343 52.7128 26.2014 52.7128 26.2302 52.7128C26.2877 52.7032 26.3452 52.6553 26.374 52.5881C26.4028 52.5019 26.4028 52.4252 26.3836 52.3868C26.3548 52.3293 26.2685 52.2622 26.1631 52.2142L25.3673 51.8978L25.607 51.313L26.4411 51.639C26.5082 51.6677 26.5562 51.6677 26.6041 51.6582C26.6616 51.639 26.7096 51.591 26.7287 51.5239C26.7671 51.4472 26.7575 51.3705 26.7287 51.3226C26.7096 51.2747 26.6041 51.2075 26.4795 51.1692L25.6549 50.824C25.5399 50.7857 25.4536 50.7761 25.4057 50.8049C25.3385 50.8336 25.281 50.9007 25.2427 50.9966L25.2331 51.0254L24.4757 50.7282L24.5236 50.6323C24.5332 50.6131 24.5524 50.5652 24.5524 50.5652C24.6482 50.3063 24.8208 50.1337 25.003 50.0762C25.2043 50.0187 25.4919 50.0666 25.8371 50.2104L26.9205 50.6419C27.2465 50.7761 27.4766 50.9199 27.5724 51.0446C27.6683 51.1884 27.6779 51.3705 27.6108 51.5719L27.4862 51.8595C27.4286 52.0225 27.3423 52.0992 27.2656 52.1471C27.1698 52.1951 27.0259 52.1951 26.8725 52.1663C27.0451 52.2622 27.1506 52.3581 27.1889 52.4635C27.2273 52.5498 27.2369 52.6553 27.1889 52.7895L27.0451 53.1155C26.9684 53.3168 26.8342 53.4414 26.652 53.4798C26.4795 53.5086 26.2302 53.4702 25.933 53.3456L24.8112 52.9045C24.5715 52.8087 24.399 52.7224 24.2935 52.6553C24.1784 52.5881 24.0922 52.5019 24.025 52.4347C23.9771 52.3485 23.9483 52.2238 23.9483 52.1279C23.9579 51.9841 23.9771 51.8499 24.0538 51.6677C24.0634 51.639 24.1113 51.5719 24.1401 51.5048V51.4952ZM22.6253 51.8691L21.9254 51.4281L23.0567 49.6448L21.887 49.6831L21.8583 48.9832H23.3156L24.1305 49.501L22.6253 51.8691ZM21.4364 49.012L20.6023 49.7311C20.3626 49.9516 20.0941 50.0474 19.8832 49.9707C19.6531 49.9036 19.3463 49.6639 18.982 49.2709L18.4643 48.686C18.2246 48.4271 18.0808 48.1875 18.052 47.9957C18.0232 47.804 18.1095 47.6218 18.2917 47.4492C18.3013 47.4396 18.3109 47.4205 18.33 47.4205C18.3492 47.4013 18.378 47.3821 18.4067 47.3438L18.934 47.919C18.8669 47.9765 18.8382 48.0628 18.8669 48.1203C18.8765 48.1875 18.9245 48.2833 19.0107 48.3888L19.5572 48.9736C19.6627 49.0887 19.749 49.1654 19.8353 49.1654C19.912 49.1942 20.0079 49.1462 20.1037 49.0695L20.3434 48.8586C20.2571 48.8586 20.1325 48.8394 20.0558 48.7819C19.9791 48.7339 19.8545 48.6285 19.7394 48.5038L19.3175 48.0532C19.0587 47.7464 18.9053 47.5163 18.8573 47.3342C18.8286 47.1616 18.8957 46.989 19.0491 46.8356L19.4805 46.4617C19.6435 46.3275 19.8161 46.2699 19.9791 46.3083C20.1613 46.3371 20.3434 46.4521 20.5448 46.663L21.3789 47.593C21.6282 47.8711 21.7624 48.1299 21.7624 48.3313C21.772 48.5614 21.6569 48.7915 21.4268 48.9832L21.4364 49.012ZM20.8228 47.9478C20.9091 48.0532 20.957 48.1491 20.957 48.2162C20.9666 48.2737 20.9283 48.36 20.8611 48.4176C20.7844 48.4943 20.7173 48.4943 20.6406 48.4847C20.5735 48.4847 20.4968 48.4176 20.4105 48.3217L19.8736 47.7177C19.7682 47.6314 19.7202 47.5163 19.7202 47.478C19.7106 47.4109 19.749 47.3342 19.8161 47.2766C19.8832 47.1999 19.9599 47.1999 20.0462 47.1999C20.1037 47.1999 20.19 47.2671 20.2667 47.3629L20.8228 47.9478ZM16.8631 46.9315L16.4221 46.2412L18.2246 45.1194L17.1603 44.6401L17.4576 43.9881L18.7423 44.6209L19.2696 45.4358L16.8631 46.9315ZM13.9773 31.438C15.5688 31.4955 16.8152 32.8282 16.7577 34.4005C16.7001 35.9729 15.3483 37.2001 13.7568 37.1426C12.1652 37.0851 10.9188 35.7524 10.9764 34.18C11.0435 32.6077 12.3857 31.3805 13.9773 31.438ZM21.8487 18.7728L19.7011 20.9875L20.0654 21.3327L22.0979 19.2522L22.6157 19.722L20.5927 21.8121L20.9474 22.1572L23.143 19.8946L23.7278 20.4602L20.6982 23.5762L18.2821 21.2943L21.2638 18.2071L21.8487 18.7728ZM28.6462 15.3405L28.6367 15.3213C28.5791 15.2062 28.4928 15.1295 28.3778 15.12C28.2723 15.1104 28.0806 15.1487 27.8697 15.235L26.9972 15.6281C26.6233 15.8007 26.3836 15.9541 26.3261 16.0691C26.2589 16.1938 26.2877 16.3951 26.3932 16.6444L26.5945 17.0758C26.7 17.2772 26.815 17.4018 26.978 17.4306C27.1314 17.4593 27.3903 17.3922 27.7354 17.2388L28.3778 16.9512C28.7325 16.7882 28.953 16.6348 29.0297 16.5485C29.116 16.4526 29.1065 16.2992 29.0489 16.1458L29.0297 16.1075L30.1419 15.5993L30.1515 15.6185C30.1994 15.6952 30.2378 15.7815 30.257 15.8103C30.3337 16.002 30.3912 16.1842 30.3816 16.328C30.3816 16.4718 30.3337 16.6156 30.257 16.7403C30.1707 16.8745 30.0269 16.9991 29.8447 17.1046C29.6625 17.2196 29.3749 17.3826 29.001 17.5456L27.7834 18.1017C27.419 18.2647 27.1218 18.3701 26.9301 18.4277C26.7383 18.4852 26.5466 18.5044 26.3836 18.4756C26.211 18.4372 26.048 18.3605 25.933 18.2647C25.8083 18.1592 25.6741 17.9866 25.5686 17.7757L25.1851 16.9512C24.9934 16.5293 24.9742 16.1746 25.1276 15.8965C25.2714 15.6185 25.7029 15.3213 26.3452 15.0337L27.5629 14.4776C27.9559 14.305 28.2723 14.19 28.4641 14.1228C28.6558 14.0749 28.8476 14.0557 28.9818 14.0749C29.116 14.0941 29.2503 14.1612 29.3461 14.2475C29.4612 14.3434 29.5667 14.4968 29.6529 14.6885C29.6721 14.7269 29.6913 14.7556 29.7009 14.7844C29.7105 14.8132 29.7201 14.8419 29.7296 14.8515L28.6462 15.3405ZM25.5591 19.4344L24.6578 20.1151L24.0826 19.3577L24.9742 18.6865L25.5591 19.4344ZM32.673 16.0883L31.6184 16.4718L31.2924 15.5802L32.3566 15.1967L32.673 16.0883ZM17.7068 35.2251C27.2656 43.0965 37.045 44.0552 45.5587 35.8099C44.8972 39.9326 43.0084 43.758 40.0938 46.826C38.8474 48.1395 37.4476 49.2804 35.9232 50.2296C28.3299 50.4501 20.679 47.7464 14.8593 38.063C16.2495 37.7083 17.3617 36.6153 17.7068 35.2251ZM13.4212 38.1685C12.7309 43.9018 16.4413 49.0695 22.491 53.3647C21.6953 53.288 20.9187 53.1634 20.1421 53.0004C15.9044 52.08 12.1269 49.9228 9.23143 46.9123C8.4069 44.1319 8.4836 40.2969 10.7079 36.6344C11.3503 37.4686 12.3186 38.0438 13.4212 38.1685ZM10.0943 33.1637C9.99844 33.4801 9.94091 33.8061 9.93132 34.1417C9.92174 34.4677 9.9505 34.784 10.0176 35.0908C8.00422 36.4139 6.01001 38.552 4.92662 40.2777C3.82405 37.574 3.29673 34.6402 3.41178 31.6968C3.47889 29.9807 3.75693 28.3028 4.23631 26.6826C5.91414 29.3287 7.00712 31.1983 10.0943 33.1637ZM11.5516 31.1408C10.0176 26.7497 9.45195 22.186 9.50947 17.8236C11.4749 15.8582 13.8239 14.2858 16.3933 13.2216C17.6973 12.6847 19.0395 12.2724 20.4105 12.004C15.2716 18.5044 15.1374 25.3211 14.9169 30.5463C14.6292 30.4696 14.3224 30.4217 14.006 30.4025C13.1048 30.3642 12.2419 30.6422 11.5516 31.1408ZM16.3262 31.2462C22.0884 22.1956 28.56 17.0662 37.6298 16.0308C38.9241 17.0279 40.113 18.188 41.158 19.4823C43.6508 22.5599 45.2231 26.3086 45.6738 30.2204C43.8521 28.4275 32.5867 22.3298 17.6973 33.3843C17.4959 32.531 16.9974 31.7831 16.3262 31.2462ZM42.8167 36.7783V29.856C43.5933 30.2683 44.3699 30.6997 45.1369 31.2366V31.9174C44.6191 31.7735 44.111 31.6106 43.5933 31.4763V32.483C44.0535 32.5022 44.5137 32.5022 44.9835 32.5406V33.25C44.5137 33.3651 44.0535 33.4993 43.5933 33.6527V34.8991C44.1302 34.6211 44.6575 34.2471 45.2711 33.902V34.6115C44.4082 35.3305 43.622 36.0592 42.8167 36.7783ZM39.6815 38.9738V28.5809C40.0938 28.6959 40.5924 28.8877 40.9567 29.0123C42.1072 29.3862 42.366 32.3776 42.366 33.3938C42.366 34.7169 42.088 37.4781 40.8512 38.2356C40.5252 38.4369 40.0746 38.7629 39.6815 38.9738ZM40.4485 36.4906V30.8531L40.88 30.9394C41.5415 31.1216 41.5703 33.1637 41.5703 33.5568C41.5703 34.0554 41.5128 36.1359 40.88 36.3372C40.7937 36.3564 40.6019 36.4331 40.4485 36.4906ZM36.556 28.0632C36.8053 28.0632 37.0737 28.0919 37.3134 28.1207V35.6469C37.3134 35.9537 37.2655 37.7562 37.812 37.7562C38.3105 37.7562 38.3201 35.7236 38.3201 35.4456V28.2741C38.5694 28.3029 38.8474 28.3796 39.0871 28.3891V34.9279C39.0871 36.1167 39.0679 39.8367 37.8215 40.2202C37.6681 40.249 37.4093 40.249 37.2846 40.1531C36.5272 39.4724 36.5656 36.4043 36.5656 35.3689V29.9136C36.556 29.2808 36.556 28.6672 36.556 28.0632ZM34.581 40.7187V30.6614L33.7085 30.7189V28.1782L36.23 28.0056V30.5559L35.348 30.5943V40.6133L34.581 40.7187ZM30.7363 40.7475V28.6768L31.58 28.5138L32.6538 36.4235L32.6251 28.3412L33.3825 28.1686V40.8242H32.5196L32.232 38.7437L31.9348 36.6728L31.4362 33.0966C31.465 35.6661 31.4746 38.2164 31.4746 40.7859L30.7363 40.7475ZM27.9368 40.1914V29.3383C28.7134 29.1466 29.49 28.9356 30.2474 28.7535V31.1791C29.7296 31.275 29.2215 31.3517 28.7134 31.4188V33.3843C29.1736 33.3651 29.6434 33.3171 30.094 33.2692V35.6373C29.6434 35.6949 29.1736 35.6661 28.7134 35.6661V38.0822C29.2407 38.1685 29.768 38.1972 30.2857 38.226V40.6708C29.5187 40.5653 28.7229 40.4215 27.9368 40.1914ZM25.9138 39.5203L24.8687 30.4121L25.6933 30.0861L26.2781 36.807L26.3261 36.1359L26.8821 29.6835L27.6875 29.4246L26.6329 39.7792L25.9138 39.5203ZM22.0979 31.7064C22.3472 31.553 22.5965 31.4476 22.8554 31.3517V35.4935C22.8554 35.877 22.8745 36.7974 23.3539 36.9412C23.8908 37.0946 23.8525 35.9346 23.8525 35.6661V30.8436C24.1113 30.7093 24.3798 30.623 24.6291 30.4888V35.5319C24.6291 36.3276 24.7441 39.0985 23.3443 38.4657C23.2005 38.3986 22.9225 38.1301 22.8074 37.9671C22.213 37.1138 22.0884 36.1838 22.0884 35.1484V33.4226C22.0979 32.8569 22.0979 32.2817 22.0979 31.7064ZM19.4422 34.7265C19.6723 34.7553 19.912 34.8128 20.1421 34.8416C20.1421 35.0717 20.1613 35.6757 20.4585 35.7428C20.8036 35.8195 20.7749 35.3209 20.7749 35.0621V32.368C21.0337 32.2242 21.2926 32.1091 21.5419 31.9941V35.2155C21.5419 35.9346 21.5227 37.2576 20.4585 36.529C19.912 36.1647 19.4422 35.4839 19.4422 34.8128V34.7265Z" fill="white"/>
    <path fill-rule="evenodd" clip-rule="evenodd" d="M28.2915 2.65612H25.4344C25.5111 2.77117 27.2656 4.00797 27.6108 4.26683C27.6683 4.30518 27.7067 4.35312 27.7738 4.37229L26.863 7.13351C27.1985 6.92259 27.6683 6.53908 28.0135 6.29939C28.349 6.06929 28.8476 5.65703 29.164 5.4461L31.2061 6.90341C31.3116 6.98011 31.3979 7.03764 31.4938 7.11434C31.4842 6.96094 30.6309 4.54487 30.6117 4.37229C30.8034 4.23807 30.976 4.09426 31.1774 3.96003C31.58 3.68199 32.1841 3.20261 32.6059 2.88622C32.6826 2.8287 32.8456 2.752 32.8744 2.65612H30.0173C30.0173 2.5219 29.2215 0.18253 29.2119 0.00995377C29.1352 0.0674792 29.0106 0.53727 28.9722 0.65232L28.5312 1.9754C28.4449 2.19592 28.349 2.44519 28.2915 2.65612Z" fill="white"/>
    <path fill-rule="evenodd" clip-rule="evenodd" d="M19.586 2.65612H16.7289C16.796 2.76158 18.9724 4.27642 19.0587 4.39147L18.1479 7.13351C18.2533 7.07599 18.3492 6.99929 18.4451 6.92259C18.5505 6.84589 18.6272 6.78836 18.7327 6.71166C18.934 6.55826 19.1066 6.43362 19.308 6.28022L20.4681 5.43651C21.0817 5.84878 21.8583 6.46238 22.491 6.89382C22.5965 6.96094 22.6828 7.03764 22.7787 7.10475C22.7787 6.96094 22.3664 5.84878 22.2897 5.57074L21.8966 4.36271C22.0117 4.29559 22.0884 4.23807 22.1938 4.15178L23.6224 3.08756C23.7182 3.01086 24.1209 2.74241 24.188 2.64653H21.3309C21.3022 2.57942 21.2542 2.41643 21.2255 2.32056L20.6982 0.652321C20.679 0.57562 20.5256 0.0578916 20.4681 0.000366211L19.586 2.65612Z" fill="white"/>
    </svg>