<svg xmlns="http://www.w3.org/2000/svg" width="101" height="38" viewBox="0 0 101 38" fill="none">
    <g clip-path="url(#clip0_13583_65706)">
    <path d="M98.9842 27.3306V26.895H99.256C99.4059 26.895 99.5453 26.9403 99.5453 27.111C99.5453 27.2818 99.3676 27.3306 99.1968 27.3306H98.9842ZM98.9842 27.4561H99.2386L99.5871 28.0102H99.7649L99.4163 27.4561C99.5035 27.4491 99.5836 27.4108 99.6394 27.3446C99.6952 27.2783 99.7265 27.1947 99.7196 27.1076C99.7196 26.888 99.5976 26.759 99.3257 26.759H98.8483V28.0032H99.0051L98.9842 27.4561ZM99.2107 26.3164C98.9981 26.3095 98.789 26.3687 98.6078 26.4837C98.4266 26.5987 98.2872 26.7625 98.2 26.9612C98.1164 27.1564 98.0885 27.3724 98.1268 27.585C98.1652 27.7941 98.2662 27.9893 98.4126 28.1427C98.5625 28.296 98.7542 28.4006 98.9598 28.4459C99.1689 28.4912 99.385 28.4703 99.5836 28.3901C99.7823 28.3099 99.9496 28.1705 100.068 27.9963C100.187 27.8185 100.249 27.6094 100.249 27.3968C100.253 27.2574 100.228 27.118 100.18 26.9891C100.127 26.8601 100.051 26.7416 99.9531 26.6405C99.8555 26.5395 99.7405 26.4593 99.6115 26.407C99.4826 26.3513 99.3432 26.3234 99.2037 26.3234L99.2107 26.3164ZM99.2107 26.4663C99.3919 26.4593 99.5732 26.5081 99.73 26.6057C99.8834 26.7033 100.009 26.8427 100.082 27.01C100.155 27.1773 100.18 27.362 100.148 27.5432C100.117 27.7244 100.033 27.8917 99.9043 28.0242C99.7788 28.1566 99.615 28.2472 99.4338 28.2856C99.256 28.3239 99.0678 28.3099 98.8971 28.2402C98.7263 28.1705 98.5799 28.0555 98.4788 27.9022C98.3743 27.7523 98.3185 27.5711 98.3185 27.3899C98.315 27.2714 98.3325 27.1494 98.3778 27.0379C98.4196 26.9263 98.4858 26.8253 98.5695 26.7381C98.6531 26.651 98.7507 26.5848 98.8622 26.536C98.9737 26.4907 99.0922 26.4663 99.2107 26.4663Z" fill="white"/>
    <path d="M92.0348 31.6627C91.634 31.6627 90.5919 31.6627 90.3619 31.6209V27.3132C91.2123 27.247 92.0696 27.2748 92.9165 27.3899C94.199 27.6373 95.0076 28.3762 95.0076 29.5576C95.0076 30.3279 94.6242 31.6487 92.0487 31.6487L92.0348 31.6627ZM96.0392 27.1703C95.14 26.6162 93.7599 26.3339 91.7873 26.3339H87.2078C87.9327 26.6196 88.1418 26.9925 88.1418 28.1252V37.3749H90.3619V32.5967C91.6932 32.7431 94.1293 32.6385 95.0599 32.3214C96.8896 31.6975 97.4403 30.5161 97.4403 29.5507C97.4403 29.0627 97.3148 28.5853 97.0708 28.1636C96.8269 27.7419 96.4714 27.3968 96.0462 27.1598" fill="white"/>
    <path d="M71.8905 34.5728C70.824 35.7473 69.0013 36.4234 67.3075 36.4199C64.352 36.4199 62.2923 34.6774 62.2923 31.6662C62.2923 28.655 64.3555 26.9821 67.311 26.9821C68.1369 26.9472 68.9594 27.111 69.7122 27.4561C70.465 27.8011 71.1237 28.3169 71.6395 28.9652L71.4479 26.5708C70.0886 26.2154 68.6911 26.0272 67.2831 26.0097C65.0142 26.0097 62.8534 26.6266 61.4489 27.9649C60.8982 28.4215 60.4521 28.993 60.1489 29.6413C59.8457 30.2895 59.6854 30.997 59.6854 31.7115C59.6854 32.4259 59.8422 33.1334 60.1489 33.7817C60.4556 34.4299 60.8982 35.0015 61.4489 35.458C62.9336 36.7615 64.8469 37.4655 66.823 37.4341C68.7991 37.4341 70.6567 36.8382 71.8905 35.8379V34.5728Z" fill="white"/>
    <path d="M38.3004 26.2537C39.0218 26.5395 39.2344 26.9089 39.2344 28.0311V37.3644H41.4371V26.2537H38.3004Z" fill="white"/>
    <path d="M47.0133 29.474C46.2501 28.7142 46.4174 26.9751 48.8953 26.9751C50.1012 26.9403 51.2757 27.369 52.1749 28.1775L52.025 26.3826C50.9969 26.1317 49.9443 26.0028 48.8883 25.9958C46.1002 25.9958 44.8351 27.5467 44.8351 28.9617C44.8351 32.1367 49.0661 32.2726 50.5333 33.7642C51.307 34.5484 51.2652 36.4478 48.606 36.4478C47.0551 36.4339 45.5705 35.8205 44.4657 34.7366L44.619 36.6604C45.8946 37.1379 47.2399 37.4028 48.5991 37.4446C51.2861 37.4446 52.9137 36.0993 52.9137 34.1546C52.9137 31.2654 48.5817 31.0179 47.0308 29.474" fill="white"/>
    <path d="M28.7162 27.5188L31.9051 33.9455L35.3554 26.2537H36.6415L31.3928 37.7338C31.3928 37.7338 26.8621 28.9721 26.3811 28.0311C25.8026 26.9089 25.4053 26.5395 24.5375 26.2537H28.1585C28.3049 26.6928 28.4931 27.1145 28.7162 27.5188Z" fill="white"/>
    <path d="M8.41506 35.8832C7.42178 36.3502 4.87761 36.4513 3.41732 36.3537V27.362C5.19476 27.1912 7.15691 27.4979 8.1223 27.9963C9.08769 28.4947 10.7954 29.7389 10.7954 32.1436C10.8163 32.9348 10.6037 33.712 10.1786 34.3776C9.75336 35.0433 9.13997 35.5696 8.41506 35.8832ZM12.1616 28.7351C10.7954 27.3132 8.32793 26.3234 4.54303 26.3234H0.256271C0.981187 26.6092 1.1903 26.9821 1.1903 28.1183V37.3644H4.92292C8.31399 37.3644 10.6072 36.5489 12.0675 35.1269C12.5101 34.7018 12.8621 34.1894 13.0991 33.6248C13.3396 33.0602 13.4616 32.4503 13.4616 31.8369C13.4442 30.6694 12.9702 29.5576 12.1442 28.7351" fill="white"/>
    <path d="M84.8588 32.6978C84.8588 34.3916 84.5277 35.3012 83.8551 36.0575C82.9106 37.103 81.4154 37.6049 79.99 37.6119C79.1327 37.6119 78.2788 37.4585 77.4772 37.1483C75.6893 36.4513 74.7832 35.0781 74.7832 32.8093V28.1183C74.7832 26.9821 74.5741 26.6127 73.8457 26.3234H76.9823V32.7466C76.9823 34.2696 77.2193 34.8934 77.7246 35.458C78.3206 36.1342 79.2686 36.4095 80.2375 36.4095C80.7254 36.4339 81.2098 36.3607 81.6699 36.1934C82.1264 36.0226 82.5446 35.7647 82.8966 35.4267C83.388 34.8969 83.6634 34.1964 83.6634 32.6385V26.3234H84.8414L84.8588 32.6978Z" fill="white"/>
    <path d="M19.2923 28.5644L21.474 33.1927H17.2918L19.2923 28.5644ZM23.579 37.3609H26.172C24.3702 33.712 20.6863 26.3234 20.6829 26.3199H17.954C18.062 26.3617 18.1596 26.428 18.2398 26.5151C18.3199 26.6022 18.3757 26.7033 18.407 26.8148C18.536 27.2609 18.407 27.8987 18.0585 28.6759L14.197 37.3609H15.4865L16.8805 34.2243H22.0212L23.579 37.3609Z" fill="white"/>
    <path d="M50.9202 10.4031C50.9202 7.96352 45.1244 5.78877 39.6945 5.04295C38.6977 6.65309 38.168 8.51069 38.168 10.4031C38.168 12.2956 38.6977 14.1532 39.6945 15.7633C45.1244 15.0175 50.9202 12.8323 50.9202 10.4031Z" fill="white"/>
    <path d="M48.85 -9.66746e-05C47.1109 -0.00706702 45.3962 0.407668 43.8523 1.20577C42.3083 2.00736 40.984 3.16792 39.9872 4.59684C48.6723 5.029 56.8868 6.77159 56.7648 10.4031C56.8868 14.0312 48.5712 15.8086 39.9872 16.2094C40.984 17.6349 42.3118 18.7954 43.8523 19.597C45.3962 20.3986 47.1109 20.8099 48.85 20.8029C54.7504 20.8029 59.5321 16.1432 59.5321 10.4031C59.5321 4.66306 54.7504 -9.66746e-05 48.85 -9.66746e-05Z" fill="white"/>
    </g>
    <defs>
    <clipPath id="clip0_13583_65706">
    <rect width="100" height="37.7339" fill="white" transform="translate(0.256058)"/>
    </clipPath>
    </defs>
    </svg>