<svg xmlns="http://www.w3.org/2000/svg" width="100" height="14" viewBox="0 0 100 14" fill="none">
    <path d="M0 13.2501H11.9787C13.3891 13.2501 13.9851 13.2104 14.74 13.0514C16.1901 12.7733 17.3026 11.5417 17.5211 9.95246C17.6403 9.19759 17.7198 7.82689 17.7198 6.63498C17.7198 5.99929 17.68 5.08549 17.6403 4.46967C17.5012 2.78113 17.2033 1.94679 16.4682 1.23164C15.5545 0.317844 14.2433 0 11.4424 0H0V13.2501ZM4.03264 10.0915V3.29762H10.8663C13.1905 3.29762 13.6673 3.87371 13.6673 6.65484C13.6673 8.93934 13.409 9.63462 12.4356 9.9326C11.9588 10.0915 11.8794 10.0915 10.7868 10.0915H4.03264Z" fill="white"/>
    <path d="M21.7074 13.2501H25.7202V9.91273H31.8982C33.706 9.873 34.1033 10.171 34.1231 11.6013V13.2501H38.2154V11.1642C38.2551 9.15786 37.7585 8.46257 36.1097 8.18446C37.7982 7.80702 38.3941 6.83363 38.3941 4.37034C38.3941 2.58248 38.0366 1.45016 37.2618 0.834339C36.507 0.198653 35.474 0 33.1299 0H21.7074V13.2501ZM25.7202 6.67471V3.25789H32.1565C33.3683 3.25789 33.706 3.31749 34.0039 3.63533C34.2622 3.91344 34.3416 4.27102 34.3416 5.12522C34.3416 6.43632 33.9642 6.67471 32.0174 6.67471H25.7202Z" fill="white"/>
    <path d="M41.3794 13.2501H45.9484L47.2197 10.8861H55.7618L57.0729 13.2501H61.4829L54.2321 0H48.8288L41.3794 13.2501ZM48.6699 8.12487L51.4907 2.84072L54.3513 8.12487H48.6699Z" fill="white"/>
    <path d="M64.1328 13.2501H68.1654V8.1646H70.1917L76.1711 13.2501H82.0313L73.6879 6.55552L81.2963 0H75.7539L70.2711 4.94643H68.1654V0H64.1328V13.2501Z" fill="white"/>
    <path d="M85.1806 0V13.2501H100V10.2504H89.1536V7.90635H99.2451V5.28414H89.1536V2.99965H99.8609V0H85.1806Z" fill="white"/>
    </svg>