<svg xmlns="http://www.w3.org/2000/svg" width="1860" height="600" viewBox="0 0 1860 600" fill="none">
  <path fill-rule="evenodd" clip-rule="evenodd" d="M135.844 62.9278C109.996 -39.0848 196.386 -106.186 382.573 -126.091C516.566 -140.134 554.862 -86.4915 559.993 -66.2419C569.965 -26.8887 494.06 23.8177 494.06 23.8177C494.06 23.8177 505.258 47.5498 579.188 39.6057C653.118 31.6617 717.673 -7.26535 697.136 -85.9094C674.241 -176.269 515.186 -202.155 370.296 -186.578C248.484 -173.813 -70.7195 -128.789 -18.4428 77.5282C7.39956 179.519 186.387 212.378 345.598 241.607C472.969 264.991 587.682 286.05 601.199 338.324C633.484 465.745 420.558 523.359 345.143 531.458C269.727 539.558 230.364 508.188 225.524 489.084C199.385 385.926 351.323 340.39 351.323 340.39C349.519 334.654 345.959 329.206 340.849 324.363C335.739 319.521 329.183 315.38 321.56 312.182C313.938 308.984 305.403 306.793 296.451 305.736C287.5 304.679 278.31 304.778 269.418 306.026C110.765 322.653 69.5479 417.575 91.9241 503.478C110.463 576.644 202.844 613.832 324.31 600.907C556.348 576.589 799.46 475.609 757.57 313.896C736.703 233.462 570.671 200.705 415.264 170.043L415.264 170.043C278.524 143.065 150.01 117.709 135.844 62.9278ZM2452.02 236.527C2449.52 233.848 2444.66 235.141 2438.45 239.518C2412.7 261.024 2380.49 278.985 2343.75 292.336C2307 305.687 2266.45 314.156 2224.52 317.241C1967.52 344.174 1854.08 77.0017 1854.08 77.0017C1854.08 77.0017 2026.3 -37.7286 2046.43 -78.6671C2066.56 -119.606 1968.56 -118.749 1968.56 -118.749C1968.56 -118.749 1858.8 2.96618 1769.64 44.6686C1769.06 24.9915 1776.32 -5.91858 1784.27 -39.7833L1784.27 -39.7843C1795.6 -88.0162 1808.34 -142.241 1801.83 -178.542C1790.75 -240.331 1677.07 -212.337 1658.46 -203.915C1661.66 -191.287 1653.72 -128.173 1643.96 -50.6258L1643.96 -50.6245C1633.05 36.0637 1619.87 140.789 1617.45 213.19C1601.02 238.64 1575.66 268.557 1546.84 271.577C1530.21 273.321 1519.13 254.871 1511.72 225.643C1506.7 205.846 1508.65 179.114 1510.59 152.547C1512.5 126.304 1514.41 100.222 1509.57 81.1408C1502.84 54.587 1483.39 54.8604 1467.1 56.7639L1440.95 59.5039C1419.49 61.7533 1411.09 56.4566 1402.93 51.3133C1395.16 46.418 1387.61 41.6616 1369.24 43.6831C1253.96 55.7641 1127.47 152.367 1153.44 275.349C1118.73 296.048 1069.83 323.333 1041.91 326.26C1013.98 329.187 998.685 312.159 994.861 297.068C988.181 270.705 1014.74 107.113 1014.74 107.113C1014.74 107.113 1095.59 84.3244 1131.42 75.2744C1158.43 68.7179 1165.81 66.5711 1174.63 56.8225C1183.44 47.0738 1199.99 26.9059 1212.85 9.08418C1225.72 -8.73753 1205.59 -19.5711 1175.93 -16.2663C1125.31 -7.59204 1075.7 3.37372 1027.48 16.5489C1027.48 16.5489 1042.11 -136.379 1041.08 -139.213C1040.06 -142.048 1033.68 -143.144 1025.07 -142.241C998.233 -137.572 972.507 -130.588 948.588 -121.479C933.615 -114.932 920.814 -106.537 910.929 -96.7816C901.045 -87.0263 894.273 -76.1053 891.009 -64.6532C888.358 -51.0401 874.297 54.7628 874.297 54.7628C874.297 54.7628 672.139 124.78 644.565 135.122C643.753 135.408 643.097 135.848 642.686 136.382C642.276 136.916 642.131 137.519 642.272 138.108C642.562 139.254 682.517 197.036 732.382 191.615C768.629 187.816 867.082 149.062 867.082 149.062C867.082 149.062 848.005 292.847 859.968 338.856C867.471 368.466 897.969 400.961 988.24 391.305C1059.65 381.424 1124.64 357.708 1174.45 323.351C1187.03 336.57 1205.61 346.988 1227.7 353.196C1249.78 359.404 1274.29 361.104 1297.92 358.065C1355.24 349.108 1405.19 326.575 1437.79 294.969C1447.05 307.113 1461.84 317.162 1480.18 323.784C1498.52 330.406 1519.56 333.29 1540.51 332.054C1572.6 328.691 1599.97 301.897 1618.12 277.246C1618.83 281.939 1620.01 286.597 1621.66 291.192C1645.98 347.475 1770.27 299.935 1774.18 291.288C1772.68 280.958 1769.99 268.073 1766.98 253.695L1766.98 253.691C1757.74 209.459 1745.54 151.088 1756.16 109.424C1835.68 284.843 1996.3 391.557 2229.68 366.511C2360.11 352.842 2420.76 321.384 2443.66 298.589C2453.45 289.641 2459.39 279.185 2460.86 268.283C2462.33 257.382 2459.28 246.424 2452.02 236.527ZM1317.58 294.819C1205.58 306.558 1304.76 104.567 1400.38 94.3495C1400.55 95.2222 1400.77 96.2752 1401.03 97.495C1407.89 130.093 1439.82 281.82 1317.58 294.819ZM2343.85 230.02C2312.97 243.378 2278.14 252.503 2241.54 256.823C2081.79 273.957 2018.68 189.773 2024.59 125.223C2031.63 44.6695 2137.03 -32.8573 2232.23 -48.3256C2308.66 -60.8461 2365.84 -38.5991 2378.88 -24.4726C2394.56 -0.298165 2396.09 26.7099 2383.2 51.5567C2335.35 137.171 2161.83 140.845 2161.83 140.845C2161.83 140.845 2156.81 205.302 2245.94 195.961C2272.84 193.009 2298.38 186.252 2320.73 176.178C2343.07 166.104 2361.65 152.964 2375.14 137.708C2387.77 135.796 2434.85 159.102 2421.02 179.181C2401 199.355 2374.73 216.661 2343.85 230.02ZM2301.99 16.3353C2301.7 -1.67584 2298.97 -18.4516 2282.93 -16.7702C2218.44 -7.65888 2165.94 78.8358 2168.06 114.893C2266.09 106.973 2302.1 40.8373 2301.99 16.3353Z" fill="url(#paint0_linear_13025_15649)" fill-opacity="0.6"/>
  <defs>
    <linearGradient id="paint0_linear_13025_15649" x1="819.876" y1="-124.369" x2="954.24" y2="493.983" gradientUnits="userSpaceOnUse">
      <stop stop-color="#1A2C38"/>
      <stop offset="1" stop-color="#071824"/>
    </linearGradient>
  </defs>
</svg>