<svg fill="none" viewBox="0 0 97 96" class="svg-icon " style=""> <title></title> <path d="M48.121 96c26.51 0 48-21.49 48-48s-21.49-48-48-48-48 21.49-48 48 21.49 48 48 48Z" fill="#06C755"></path><path d="M80.161 45.23c0-14.334-14.394-26.018-32.04-26.018s-32.04 11.684-32.04 26.018c0 12.888 11.383 23.608 26.8 25.656 1.024.24 2.47.662 2.831 1.566.301.783.241 2.108.12 2.89 0 0-.36 2.29-.481 2.77-.12.784-.663 3.193 2.77 1.748 3.433-1.446 18.49-10.901 25.175-18.61 4.637-5.12 6.865-10.239 6.865-16.02Z" fill="#fff"></path><path d="M69.501 53.48a.603.603 0 0 0 .602-.602V50.59a.603.603 0 0 0-.602-.603h-6.143V47.64h6.143a.603.603 0 0 0 .602-.603v-2.288a.603.603 0 0 0-.602-.602h-6.143v-2.35h6.143a.603.603 0 0 0 .602-.602v-2.288a.603.603 0 0 0-.602-.602h-9.034a.604.604 0 0 0-.602.602v13.972c0 .362.301.602.602.602h9.034Zm-33.365 0a.603.603 0 0 0 .602-.602V50.59a.603.603 0 0 0-.602-.603h-6.143V38.906a.603.603 0 0 0-.602-.602h-2.289a.604.604 0 0 0-.602.602v13.972c0 .362.301.602.602.602h9.034Zm5.481-15.176h-2.289a.602.602 0 0 0-.602.602v14.032c0 .333.27.603.602.603h2.289c.332 0 .602-.27.602-.602V38.905a.602.602 0 0 0-.602-.602Zm15.478 0h-2.289a.604.604 0 0 0-.602.602v8.311l-6.384-8.672v-.06h-2.289a.604.604 0 0 0-.602.602v13.972c0 .361.301.602.602.602h2.289a.603.603 0 0 0 .602-.602v-8.311l6.384 8.672.18.181h2.471a.604.604 0 0 0 .601-.602V39.026a.604.604 0 0 0-.602-.602l-.361-.12Z" fill="#06C755"></path></svg>